<svg width="261" height="62" viewBox="0 0 261 62" fill="none" xmlns="http://www.w3.org/2000/svg">
<g filter="url(#filter0_d_84_9)">
<rect x="6" width="255" height="56" fill="url(#paint0_angular_84_9)"/>
<rect x="7" y="1" width="253" height="54" stroke="#111010" stroke-width="2"/>
<path d="M32.16 37.288C30.848 37.288 29.656 36.976 28.584 36.352C27.528 35.728 26.688 34.816 26.064 33.616C25.456 32.4 25.152 30.928 25.152 29.2C25.152 27.488 25.464 26.024 26.088 24.808C26.712 23.576 27.56 22.64 28.632 22C29.704 21.344 30.92 21.016 32.28 21.016C33.32 21.016 34.2 21.224 34.92 21.64C35.656 22.04 36.256 22.488 36.72 22.984L35.184 24.712C34.832 24.328 34.424 24.024 33.96 23.8C33.512 23.56 32.952 23.44 32.28 23.44C31.448 23.44 30.712 23.672 30.072 24.136C29.432 24.584 28.928 25.232 28.56 26.08C28.208 26.928 28.032 27.944 28.032 29.128C28.032 30.312 28.192 31.336 28.512 32.2C28.848 33.064 29.336 33.728 29.976 34.192C30.616 34.64 31.4 34.864 32.328 34.864C32.744 34.864 33.144 34.808 33.528 34.696C33.912 34.568 34.216 34.392 34.44 34.168V30.784H31.728V28.504H36.96V35.416C36.448 35.928 35.768 36.368 34.92 36.736C34.088 37.104 33.168 37.288 32.16 37.288ZM46.3106 37.288C45.1106 37.288 44.0226 37.048 43.0466 36.568C42.0706 36.072 41.2946 35.368 40.7186 34.456C40.1426 33.528 39.8546 32.408 39.8546 31.096C39.8546 29.816 40.1426 28.72 40.7186 27.808C41.2946 26.88 42.0466 26.168 42.9746 25.672C43.9026 25.176 44.8946 24.928 45.9506 24.928C47.1186 24.928 48.1026 25.168 48.9026 25.648C49.7186 26.128 50.3346 26.792 50.7506 27.64C51.1826 28.472 51.3986 29.432 51.3986 30.52C51.3986 30.792 51.3826 31.056 51.3506 31.312C51.3346 31.552 51.3106 31.752 51.2786 31.912H41.8466V29.944H49.5026L48.9746 30.568C48.9746 29.4 48.7106 28.528 48.1826 27.952C47.6706 27.36 46.9506 27.064 46.0226 27.064C45.3666 27.064 44.7746 27.216 44.2466 27.52C43.7346 27.824 43.3266 28.28 43.0226 28.888C42.7186 29.48 42.5666 30.216 42.5666 31.096C42.5666 32.008 42.7346 32.76 43.0706 33.352C43.4226 33.944 43.9026 34.392 44.5106 34.696C45.1346 35 45.8546 35.152 46.6706 35.152C47.2946 35.152 47.8706 35.064 48.3986 34.888C48.9266 34.712 49.4546 34.472 49.9826 34.168L50.9186 35.896C50.2946 36.296 49.5906 36.632 48.8066 36.904C48.0226 37.16 47.1906 37.288 46.3106 37.288ZM62.1653 37.288C60.9653 37.288 60.0133 37.08 59.3093 36.664C58.6053 36.232 58.1013 35.64 57.7973 34.888C57.4933 34.136 57.3413 33.264 57.3413 32.272V27.4H54.1973V25.336L57.4613 25.216L57.8213 21.52H60.1013V25.216H65.4773V27.4H60.1013V32.248C60.1013 32.888 60.1893 33.424 60.3653 33.856C60.5413 34.272 60.8293 34.584 61.2293 34.792C61.6293 34.984 62.1573 35.08 62.8133 35.08C63.3253 35.08 63.7893 35.04 64.2053 34.96C64.6213 34.88 65.0213 34.768 65.4053 34.624L65.9333 36.616C65.4053 36.792 64.8373 36.944 64.2293 37.072C63.6213 37.216 62.9333 37.288 62.1653 37.288ZM87.3705 37V23.632H82.4265V21.304H95.0985V23.632H90.1545V37H87.3705ZM103.153 37.288C102.113 37.288 101.145 37.048 100.249 36.568C99.3531 36.072 98.6251 35.368 98.0651 34.456C97.5051 33.528 97.2251 32.416 97.2251 31.12C97.2251 29.808 97.5051 28.696 98.0651 27.784C98.6251 26.856 99.3531 26.152 100.249 25.672C101.145 25.176 102.113 24.928 103.153 24.928C104.193 24.928 105.161 25.176 106.057 25.672C106.953 26.152 107.681 26.856 108.241 27.784C108.801 28.696 109.081 29.808 109.081 31.12C109.081 32.416 108.801 33.528 108.241 34.456C107.681 35.368 106.953 36.072 106.057 36.568C105.161 37.048 104.193 37.288 103.153 37.288ZM103.153 35.032C103.793 35.032 104.345 34.872 104.809 34.552C105.273 34.232 105.625 33.776 105.865 33.184C106.105 32.592 106.225 31.904 106.225 31.12C106.225 30.336 106.105 29.648 105.865 29.056C105.625 28.464 105.273 28.008 104.809 27.688C104.345 27.352 103.793 27.184 103.153 27.184C102.513 27.184 101.961 27.352 101.497 27.688C101.049 28.008 100.697 28.464 100.441 29.056C100.201 29.648 100.081 30.336 100.081 31.12C100.081 31.904 100.201 32.592 100.441 33.184C100.697 33.776 101.049 34.232 101.497 34.552C101.961 34.872 102.513 35.032 103.153 35.032ZM126.702 37V21.304H129.534V28.432H129.606L135.198 21.304H138.318L129.534 32.368V37H126.702ZM135.726 37L131.478 28.984L133.134 26.8L138.822 37H135.726ZM141.093 37V25.216H143.373L143.589 26.992H143.685C144.245 26.416 144.861 25.928 145.533 25.528C146.221 25.128 147.021 24.928 147.933 24.928C149.293 24.928 150.293 25.344 150.933 26.176C151.573 27.008 151.893 28.184 151.893 29.704V37H149.109V30.064C149.109 29.12 148.941 28.424 148.605 27.976C148.269 27.528 147.701 27.304 146.901 27.304C146.325 27.304 145.813 27.44 145.365 27.712C144.917 27.984 144.421 28.4 143.877 28.96V37H141.093ZM160.716 37.288C159.676 37.288 158.708 37.048 157.812 36.568C156.916 36.072 156.188 35.368 155.628 34.456C155.068 33.528 154.788 32.416 154.788 31.12C154.788 29.808 155.068 28.696 155.628 27.784C156.188 26.856 156.916 26.152 157.812 25.672C158.708 25.176 159.676 24.928 160.716 24.928C161.756 24.928 162.724 25.176 163.62 25.672C164.516 26.152 165.244 26.856 165.804 27.784C166.364 28.696 166.644 29.808 166.644 31.12C166.644 32.416 166.364 33.528 165.804 34.456C165.244 35.368 164.516 36.072 163.62 36.568C162.724 37.048 161.756 37.288 160.716 37.288ZM160.716 35.032C161.356 35.032 161.908 34.872 162.372 34.552C162.836 34.232 163.188 33.776 163.428 33.184C163.668 32.592 163.788 31.904 163.788 31.12C163.788 30.336 163.668 29.648 163.428 29.056C163.188 28.464 162.836 28.008 162.372 27.688C161.908 27.352 161.356 27.184 160.716 27.184C160.076 27.184 159.524 27.352 159.06 27.688C158.612 28.008 158.26 28.464 158.004 29.056C157.764 29.648 157.644 30.336 157.644 31.12C157.644 31.904 157.764 32.592 158.004 33.184C158.26 33.776 158.612 34.232 159.06 34.552C159.524 34.872 160.076 35.032 160.716 35.032ZM170.282 37L168.05 25.216H170.762L171.818 31.336C171.914 31.912 171.994 32.48 172.058 33.04C172.138 33.584 172.21 34.144 172.274 34.72H172.346C172.426 34.144 172.514 33.576 172.61 33.016C172.722 32.456 172.842 31.896 172.97 31.336L174.05 26.368H176.33L177.386 31.336C177.514 31.912 177.634 32.48 177.746 33.04C177.874 33.584 177.978 34.144 178.058 34.72H178.154C178.234 34.144 178.298 33.584 178.346 33.04C178.41 32.48 178.49 31.912 178.586 31.336L179.594 25.216H182.162L180.002 37H176.642L175.658 32.296C175.578 31.832 175.49 31.312 175.394 30.736C175.314 30.16 175.234 29.52 175.154 28.816H175.058C174.978 29.424 174.898 30.008 174.818 30.568C174.754 31.128 174.674 31.704 174.578 32.296L173.618 37H170.282ZM198.248 37V21.304H201.32L203.192 27.424L203.84 29.776H203.936L204.56 27.424L206.456 21.304H209.528V37H207.08V30.664C207.08 30.248 207.088 29.76 207.104 29.2C207.136 28.624 207.176 28.024 207.224 27.4C207.272 26.776 207.32 26.192 207.368 25.648C207.416 25.088 207.456 24.616 207.488 24.232H207.416L206.36 27.88L204.632 32.848H203.048L201.344 27.88L200.312 24.232H200.24C200.288 24.616 200.336 25.088 200.384 25.648C200.432 26.192 200.472 26.776 200.504 27.4C200.552 28.024 200.584 28.624 200.6 29.2C200.632 29.76 200.648 30.248 200.648 30.664V37H198.248ZM218.998 37.288C217.798 37.288 216.71 37.048 215.734 36.568C214.758 36.072 213.982 35.368 213.406 34.456C212.83 33.528 212.542 32.408 212.542 31.096C212.542 29.816 212.83 28.72 213.406 27.808C213.982 26.88 214.734 26.168 215.662 25.672C216.59 25.176 217.582 24.928 218.638 24.928C219.806 24.928 220.79 25.168 221.59 25.648C222.406 26.128 223.022 26.792 223.438 27.64C223.87 28.472 224.086 29.432 224.086 30.52C224.086 30.792 224.07 31.056 224.038 31.312C224.022 31.552 223.998 31.752 223.966 31.912H214.534V29.944H222.19L221.662 30.568C221.662 29.4 221.398 28.528 220.87 27.952C220.358 27.36 219.638 27.064 218.71 27.064C218.054 27.064 217.462 27.216 216.934 27.52C216.422 27.824 216.014 28.28 215.71 28.888C215.406 29.48 215.254 30.216 215.254 31.096C215.254 32.008 215.422 32.76 215.758 33.352C216.11 33.944 216.59 34.392 217.198 34.696C217.822 35 218.542 35.152 219.358 35.152C219.982 35.152 220.558 35.064 221.086 34.888C221.614 34.712 222.142 34.472 222.67 34.168L223.606 35.896C222.982 36.296 222.278 36.632 221.494 36.904C220.71 37.16 219.878 37.288 218.998 37.288Z" fill="#FEFEFE"/>
<path d="M245 23.5L238 30.5M245 23.5H239.167M245 23.5V29.3333" stroke="#111010" stroke-width="1.5"/>
</g>
<defs>
<filter id="filter0_d_84_9" x="0" y="0" width="261" height="62" filterUnits="userSpaceOnUse" color-interpolation-filters="sRGB">
<feFlood flood-opacity="0" result="BackgroundImageFix"/>
<feColorMatrix in="SourceAlpha" type="matrix" values="0 0 0 0 0 0 0 0 0 0 0 0 0 0 0 0 0 0 127 0" result="hardAlpha"/>
<feOffset dx="-6" dy="6"/>
<feComposite in2="hardAlpha" operator="out"/>
<feColorMatrix type="matrix" values="0 0 0 0 1 0 0 0 0 1 0 0 0 0 1 0 0 0 1 0"/>
<feBlend mode="normal" in2="BackgroundImageFix" result="effect1_dropShadow_84_9"/>
<feBlend mode="normal" in="SourceGraphic" in2="effect1_dropShadow_84_9" result="shape"/>
</filter>
<radialGradient id="paint0_angular_84_9" cx="0" cy="0" r="1" gradientUnits="userSpaceOnUse" gradientTransform="translate(133.5 28) scale(127.5 28)">
<stop offset="0.495" stop-color="#E58F65"/>
<stop offset="1" stop-color="#929292"/>
</radialGradient>
</defs>
</svg>
