<svg width="631" height="277" viewBox="0 0 631 277" fill="none" xmlns="http://www.w3.org/2000/svg">
<path d="M162.96 68.184C159.248 71.896 155.92 75.288 150.928 75.736C155.472 83.032 162.064 87 166.736 84.888C169.424 83.672 170.96 80.728 171.344 76.888L172.56 81.24C170.96 82.84 169.04 84.184 166.864 85.208C156.944 89.688 145.296 85.336 140.752 75.416C136.272 65.496 140.624 53.784 150.544 49.304C160.08 44.952 171.28 48.856 176.144 58.008L176.08 58.072C176.144 58.008 176.144 58.008 176.208 58.008L176.4 58.52C175.312 58.904 174.288 59.352 173.328 59.8L168.656 62.808C166.544 64.536 164.688 66.392 162.96 68.184ZM150.608 75.224C155.536 74.904 158.8 71.64 162.512 67.8C164.304 66.008 166.224 64.024 168.464 62.296C163.984 52.824 156.112 47.128 150.672 49.56C145.232 52.056 144.336 61.976 148.816 71.768C149.328 72.984 149.968 74.136 150.608 75.224ZM190.513 84.952C191.729 86.232 193.393 86.872 195.441 86.872H186.225C184.241 86.872 182.513 86.232 181.233 84.952C179.889 83.672 179.249 82.072 179.249 80.216L178.993 20.76C178.993 28.44 188.593 26.136 188.593 39.704V80.216C188.593 82.072 189.233 83.672 190.513 84.952ZM225.532 77.016L230.332 76.44C228.347 80.152 225.212 83.288 221.052 85.208C211.132 89.688 199.484 85.336 194.94 75.416C190.459 65.496 194.812 53.784 204.732 49.304C211.964 45.976 220.22 47.448 225.852 52.376C223.484 53.656 221.82 55.704 219.836 57.432C215.292 50.968 209.276 47.576 204.86 49.56C199.42 52.056 198.524 61.976 203.004 71.768C207.42 81.496 215.42 87.384 220.924 84.888C223.548 83.672 225.083 80.792 225.532 77.016ZM269.031 59.48C273.511 69.4 269.159 81.048 259.239 85.592C249.319 90.072 237.671 85.72 233.127 75.8C228.647 65.88 232.999 54.168 242.919 49.688C252.839 45.144 264.551 49.56 269.031 59.48ZM259.111 85.272C264.615 82.776 265.447 72.856 261.031 63.128C256.551 53.336 248.551 47.512 243.047 50.008C237.607 52.44 236.711 62.424 241.191 72.152C245.607 81.88 253.607 87.768 259.111 85.272ZM344.322 87H337.538V86.936H334.914C331.33 86.936 328.45 84.056 328.45 80.536C328.45 77.336 328.45 73.496 328.45 70.616C328.45 58.328 324.418 51.608 318.658 49.944C315.458 49.048 311.362 49.624 306.562 52.568C308.29 54.552 309.698 56.92 310.658 59.48C311.298 61.016 312.194 65.432 312.194 72.792C312.194 75.8 312.258 79.192 312.258 81.88C312.514 83.096 313.09 84.184 313.986 85.08C315.266 86.36 316.93 87 318.914 87H312.194V86.936H309.506C305.986 86.936 303.106 84.056 303.106 80.536C303.106 77.336 303.106 73.496 303.042 70.616C303.042 58.328 299.074 51.608 293.314 49.944C290.114 49.048 286.082 49.624 281.345 52.44C282.818 54.424 283.97 57.176 283.97 61.848V80.344C283.97 82.2 284.61 83.8 285.89 85.08C287.106 86.36 288.77 87 290.818 87H281.602C279.618 87 277.89 86.36 276.61 85.08C275.266 83.8 274.626 82.2 274.626 80.344L274.37 42.904C274.37 47.832 278.21 48.664 281.09 52.12C292.098 44.248 300.866 46.36 306.242 52.248C321.218 41.432 331.97 49.048 336.002 59.48C336.642 61.016 337.538 65.432 337.538 72.792C337.538 75.8 337.602 79.192 337.602 81.88C337.858 83.096 338.434 84.184 339.33 85.08C340.61 86.36 342.274 87 344.322 87ZM365.898 68.184C362.186 71.896 358.858 75.288 353.866 75.736C358.41 83.032 365.002 87 369.674 84.888C372.362 83.672 373.898 80.728 374.282 76.888L375.498 81.24C373.898 82.84 371.978 84.184 369.802 85.208C359.882 89.688 348.234 85.336 343.69 75.416C339.209 65.496 343.562 53.784 353.482 49.304C363.018 44.952 374.218 48.856 379.082 58.008L379.018 58.072C379.082 58.008 379.082 58.008 379.146 58.008L379.338 58.52C378.25 58.904 377.226 59.352 376.266 59.8L371.594 62.808C369.482 64.536 367.626 66.392 365.898 68.184ZM353.546 75.224C358.474 74.904 361.738 71.64 365.45 67.8C367.242 66.008 369.162 64.024 371.402 62.296C366.922 52.824 359.05 47.128 353.61 49.56C348.17 52.056 347.274 61.976 351.754 71.768C352.266 72.984 352.906 74.136 353.546 75.224ZM429.137 20.568H450.705V21.144H429.137V86.872H419.473V21.144H397.712V20.568H419.473H429.137ZM481.406 59.48C485.886 69.4 481.534 81.048 471.614 85.592C461.694 90.072 450.046 85.72 445.502 75.8C441.022 65.88 445.374 54.168 455.294 49.688C465.214 45.144 476.926 49.56 481.406 59.48ZM471.486 85.272C476.99 82.776 477.822 72.856 473.406 63.128C468.926 53.336 460.926 47.512 455.422 50.008C449.982 52.44 449.086 62.424 453.566 72.152C457.982 81.88 465.982 87.768 471.486 85.272Z" fill="white"/>
<path d="M90.7 6.9C91 6.6 91.25 6.6 91.45 6.9C91.75 7.2 91.8 7.65 91.6 8.25C90.9 9.55 88.85 10.35 85.45 10.65C87.15 12.45 87.95 14.55 87.85 16.95C87.85 19.25 87.15 21.7 85.75 24.3C84.45 26.8 82.65 29.45 80.35 32.25C78.15 34.95 75.8 37.7 73.3 40.5C70.8 43.2 68.25 45.85 65.65 48.45C63.15 50.95 60.95 53.3 59.05 55.5C56.55 58.4 53.65 61.8 50.35 65.7C47.05 69.5 43.85 73.3 40.75 77.1C37.75 80.8 35.05 84.15 32.65 87.15C30.35 90.05 28.85 92.05 28.15 93.15C29.85 93.15 32 92.35 34.6 90.75C37.2 89.15 40 87.15 43 84.75C46.1 82.35 49.3 79.65 52.6 76.65C55.9 73.55 59.1 70.55 62.2 67.65C65.3 64.65 68.2 61.85 70.9 59.25C73.6 56.65 75.85 54.5 77.65 52.8C81.35 49.3 85.45 45.4 89.95 41.1C94.45 36.7 98.95 32.5 103.45 28.5C108.05 24.4 112.45 20.75 116.65 17.55C120.95 14.25 124.8 11.95 128.2 10.65C129 10.25 129.5 10.35 129.7 10.95C129.9 11.45 129.65 11.85 128.95 12.15C131.45 14.55 132.45 17.35 131.95 20.55C131.45 23.75 129.95 27.35 127.45 31.35C125.05 35.25 121.85 39.55 117.85 44.25C113.85 48.85 109.65 53.75 105.25 58.95C102.55 62.05 99.75 65.55 96.85 69.45C93.95 73.25 91.3 76.95 88.9 80.55C86.6 84.05 84.75 87.2 83.35 90C81.95 92.7 81.45 94.5 81.85 95.4C84.75 94 88.35 91.4 92.65 87.6C97.05 83.8 101.8 79.4 106.9 74.4C112.1 69.4 117.55 64.1 123.25 58.5C128.95 52.8 134.6 47.4 140.2 42.3C148.3 35 155.95 28.75 163.15 23.55C170.35 18.25 176.85 13.9 182.65 10.5C188.55 7.09999 193.65 4.59999 197.95 3C202.35 1.39999 205.75 0.549992 208.15 0.449993C210.35 0.349995 212.05 0.699996 213.25 1.5C213.85 1.79999 214.15 2.29999 214.15 3C214.15 3.69999 213.6 3.74999 212.5 3.14999C210.1 1.74999 206.7 1.74999 202.3 3.14999C197.9 4.45 192.65 6.95 186.55 10.65C180.55 14.25 173.8 18.95 166.3 24.75C158.9 30.45 151 37.05 142.6 44.55C135.6 50.75 129.35 56.55 123.85 61.95C118.35 67.35 113.25 72.25 108.55 76.65C103.95 81.05 99.55 85 95.35 88.5C91.15 91.9 86.8 94.75 82.3 97.05C81.8 97.25 81.15 97.05 80.35 96.45C79.55 95.95 78.9 94.85 78.4 93.15C77.8 91.35 77.65 89.25 77.95 86.85C78.35 84.35 79.3 81.45 80.8 78.15C82.4 74.75 84.65 70.9 87.55 66.6C90.55 62.2 94.4 57.25 99.1 51.75C105.9 43.75 111.3 37.4 115.3 32.7C119.3 27.9 122.25 24.15 124.15 21.45C126.15 18.75 127.3 16.85 127.6 15.75C127.9 14.55 127.8 13.6 127.3 12.9C123.7 14.7 119.9 17.25 115.9 20.55C111.9 23.85 107.85 27.5 103.75 31.5C99.65 35.4 95.5 39.45 91.3 43.65C87.2 47.75 83.3 51.55 79.6 55.05C75.5 58.95 71.15 63.15 66.55 67.65C61.95 72.05 57.35 76.2 52.75 80.1C48.15 84 43.7 87.35 39.4 90.15C35.1 92.95 31.2 94.6 27.7 95.1C27.3 95.2 26.85 95.05 26.35 94.65C25.85 94.25 25.45 93.4 25.15 92.1C24.55 89.6 25.15 86.5 26.95 82.8C28.75 79 31.05 75.1 33.85 71.1C36.75 67 39.85 63.05 43.15 59.25C46.45 55.35 49.3 52.05 51.7 49.35C55.8 44.55 59.8 40.05 63.7 35.85C67.7 31.65 71.2 27.9 74.2 24.6C77.3 21.3 79.7 18.5 81.4 16.2C83.1 13.8 83.75 12.05 83.35 10.95C80.65 11.15 77.4 11.3 73.6 11.4C69.9 11.4 65.85 11.55 61.45 11.85C57.15 12.05 52.6 12.5 47.8 13.2C43.1 13.9 38.4 15 33.7 16.5C29.1 17.9 24.6 19.85 20.2 22.35C15.9 24.75 11.95 27.85 8.35 31.65C7.35 32.65 6.4 33.95 5.5 35.55C4.6 37.05 3.9 38.65 3.4 40.35C2.8 41.95 2.6 43.6 2.8 45.3C2.9 46.9 3.5 48.3 4.6 49.5C3.4 49.7 2.55 49.4 2.05 48.6C1.05 47 0.649999 45.3 0.849999 43.5C0.95 41.6 1.35 39.75 2.05 37.95C2.75 36.15 3.65 34.5 4.75 33C5.75 31.5 6.65 30.35 7.45 29.55C10.95 25.95 14.8 22.95 19 20.55C23.3 18.15 27.7 16.2 32.2 14.7C36.7 13.2 41.2 12.1 45.7 11.4C50.3 10.6 54.6 10.05 58.6 9.75C62.6 9.45 66.25 9.3 69.55 9.3C72.85 9.3 75.55 9.3 77.65 9.3C78.65 9.3 79.8 9.3 81.1 9.3C82.4 9.3 83.65 9.25 84.85 9.15C86.15 8.94999 87.3 8.69999 88.3 8.4C89.4 8 90.2 7.5 90.7 6.9Z" fill="white"/>
<path d="M162.144 231.632C163.36 232.912 165.024 233.552 167.072 233.552H157.856C155.872 233.552 154.144 232.912 152.864 231.632C151.52 230.352 150.88 228.752 150.88 226.896L150.624 169.872C150.176 173.456 149.088 180.304 146.72 187.088C145.12 191.696 143.264 195.472 141.024 198.416C142.048 199.376 142.944 200.4 143.648 201.68C144.8 203.408 145.312 205.456 145.312 207.76V227.344C145.312 229.2 145.952 230.8 147.232 232.08C148.512 233.36 150.176 234 152.16 234H143.008C140.96 234 139.296 233.36 137.952 232.08C136.672 230.8 136.032 229.2 136.032 227.344L136.416 209.872C136.416 209.872 130.912 210.384 128.288 211.216C113.632 216.336 115.04 232.528 129.184 229.904C129.184 229.904 116.128 236.624 111.2 232.912C104.608 227.344 109.024 212.752 129.312 210.064C130.08 210 136.096 209.168 136.096 209.168L136.032 203.472C133.344 205.328 130.4 206.224 127.264 206.224C127.072 206.224 126.816 206.224 126.624 206.224C124.32 206.16 122.144 205.136 120.8 203.536C119.712 202.256 119.328 200.976 119.584 199.824C119.968 198.16 121.504 197.136 122.208 196.752C123.232 196.048 124.512 195.408 126.304 194.96C130.912 193.936 136.672 194.768 140.64 198.032C148.704 186.96 150.304 167.696 150.304 167.376L150.88 167.44C150.88 167.44 150.816 167.952 150.752 168.848C151.84 174.864 160.224 173.712 160.224 186.32V226.896C160.224 228.752 160.864 230.352 162.144 231.632ZM126.624 205.712C126.88 205.712 127.072 205.712 127.264 205.712C130.656 205.712 133.536 204.624 136.032 202.768C135.968 200.848 135.328 199.248 134.112 198.032C131.36 195.472 124.128 195.792 121.12 198.288C120.672 198.736 120.288 199.248 120.16 199.952C119.904 200.912 120.288 202 121.248 203.152C122.528 204.688 124.448 205.584 126.624 205.712ZM178.263 231.952C179.479 233.232 181.143 233.872 183.191 233.872H173.975C171.991 233.872 170.263 233.232 168.983 231.952C167.639 230.672 166.999 229.072 166.999 227.216L166.743 167.76C166.743 175.44 176.343 173.136 176.343 186.704V227.216C176.343 229.072 176.983 230.672 178.263 231.952ZM204.898 215.184C201.186 218.896 197.858 222.288 192.866 222.736C197.41 230.032 204.002 234 208.674 231.888C211.362 230.672 212.898 227.728 213.282 223.888L214.498 228.24C212.898 229.84 210.978 231.184 208.802 232.208C198.882 236.688 187.234 232.336 182.69 222.416C178.209 212.496 182.562 200.784 192.482 196.304C202.018 191.952 213.218 195.856 218.082 205.008L218.018 205.072C218.082 205.008 218.082 205.008 218.146 205.008L218.338 205.52C217.25 205.904 216.226 206.352 215.266 206.8L210.594 209.808C208.482 211.536 206.626 213.392 204.898 215.184ZM192.546 222.224C197.474 221.904 200.738 218.64 204.45 214.8C206.242 213.008 208.162 211.024 210.402 209.296C205.922 199.824 198.05 194.128 192.61 196.56C187.17 199.056 186.274 208.976 190.754 218.768C191.266 219.984 191.906 221.136 192.546 222.224ZM247.415 195.344C250.295 196.304 252.535 197.968 254.263 200.016L247.543 206.48H247.351C245.111 201.552 240.567 198.288 233.527 200.144C232.631 200.656 231.799 201.296 231.031 202.064L231.287 219.664H231.223V221.968C231.223 235.536 221.559 233.232 221.559 240.912L221.687 217.424V200.912C221.687 199.056 221.047 197.456 219.831 196.176C218.551 194.896 216.887 194.256 214.903 194.256H224.055C226.103 194.256 227.767 194.896 229.047 196.176C230.391 197.456 231.031 199.056 231.031 200.912V201.232C231.415 200.912 231.799 200.592 232.183 200.336C233.847 198.864 240.247 193.808 247.415 195.344ZM295.727 194.32L296.239 194.576L277.167 231.888C268.079 255.632 259.055 259.088 250.03 251.408C242.734 241.552 261.359 231.568 274.927 232.656C267.247 221.008 254.383 213.712 254.383 194.384H254.831V194.448H263.983C263.343 211.92 276.783 217.808 280.111 224.848L295.727 194.32ZM261.231 250.512C267.247 251.472 271.279 243.984 275.695 233.872L275.567 233.808L275.631 233.744C275.439 233.36 275.183 233.04 274.991 232.72C262.447 232.4 251.886 238.608 254.255 244.944C255.343 247.952 258.095 250 261.231 250.512Z" fill="white"/>
<path d="M96.55 194.95C85.85 200.45 75.9 203.8 66.7 205C57.6 206.2 49.5 206.05 42.4 204.55C39.5 209.65 37.6 214.2 36.7 218.2C35.9 222.2 36.5 225.2 38.5 227.2C40.6 229.5 43.45 230.55 47.05 230.35C50.75 230.05 54.75 229.05 59.05 227.35C63.45 225.65 67.95 223.45 72.55 220.75C77.25 218.05 81.7 215.3 85.9 212.5C90.2 209.7 94.05 207.15 97.45 204.85C100.95 202.45 103.65 200.8 105.55 199.9C106.75 199.3 107.75 198.7 108.55 198.1C109.45 197.4 110.6 197.3 112 197.8C112.7 197.7 113.1 197.85 113.2 198.25C113.3 198.55 113.05 198.85 112.45 199.15C111.35 199.65 110.25 200.45 109.15 201.55C108.15 202.55 107.25 203.6 106.45 204.7C103.05 208.9 99.7 213.25 96.4 217.75C93.1 222.25 89.7 226.65 86.2 230.95C82.7 235.15 79 239.05 75.1 242.65C71.2 246.35 66.9 249.5 62.2 252.1C57.6 254.7 52.55 256.55 47.05 257.65C41.65 258.85 35.65 259.05 29.05 258.25C26.95 257.95 25.1 257.35 23.5 256.45C21.9 255.65 20.6 254.6 19.6 253.3C18.6 252.1 17.85 250.75 17.35 249.25C16.95 247.75 16.8 246.25 16.9 244.75C17.1 243.05 17.6 241.85 18.4 241.15C19.2 240.55 19.7 240.35 19.9 240.55C20 240.55 19.95 240.75 19.75 241.15C19.55 241.55 19.25 242.15 18.85 242.95C18.55 243.85 18.5 245.1 18.7 246.7C19.2 250.6 20.95 253.35 23.95 254.95C27.05 256.65 30.75 257.3 35.05 256.9C38.35 256.6 41.65 255.75 44.95 254.35C48.25 252.95 51.4 251.3 54.4 249.4C57.5 247.5 60.3 245.5 62.8 243.4C65.4 241.4 67.55 239.6 69.25 238C73.95 233.7 78.7 228.7 83.5 223C88.3 217.3 93.85 211.45 100.15 205.45C97.25 207.55 94 209.9 90.4 212.5C86.8 215 83 217.45 79 219.85C75 222.15 71 224.3 67 226.3C63 228.2 59.15 229.7 55.45 230.8C51.75 231.8 48.35 232.2 45.25 232C42.15 231.7 39.6 230.6 37.6 228.7C35 226.3 33.6 222.85 33.4 218.35C33.3 213.85 34.4 208.75 36.7 203.05C31.8 201.35 27.75 199.2 24.55 196.6C21.45 193.9 19.35 191.05 18.25 188.05C17.35 185.75 17 183.55 17.2 181.45C17.4 179.35 17.9 177.55 18.7 176.05C19.6 174.45 20.7 173.2 22 172.3C23.3 171.3 24.65 170.85 26.05 170.95C27.15 171.15 27.8 171.45 28 171.85C26 171.85 24.35 172.35 23.05 173.35C21.75 174.35 20.75 175.6 20.05 177.1C19.45 178.6 19.15 180.25 19.15 182.05C19.15 183.85 19.45 185.6 20.05 187.3C21.15 190.3 23.15 193.05 26.05 195.55C29.05 198.05 32.85 200 37.45 201.4C39.45 196.9 42.25 192.2 45.85 187.3C49.45 182.4 53.95 177.55 59.35 172.75C63.85 168.75 68.7 165.2 73.9 162.1C79.1 159 84.3 156.5 89.5 154.6C94.7 152.6 99.75 151.2 104.65 150.4C109.55 149.6 113.95 149.45 117.85 149.95C123.25 150.45 127.05 152.1 129.25 154.9C130.55 156.5 131 158.45 130.6 160.75C130.3 162.95 129.4 165.35 127.9 167.95C126.4 170.45 124.45 173 122.05 175.6C119.75 178.2 117.15 180.75 114.25 183.25C111.45 185.65 108.5 187.9 105.4 190C102.3 192 99.35 193.65 96.55 194.95ZM63.85 178.3C59.65 182.4 55.8 186.55 52.3 190.75C48.8 194.95 45.85 199 43.45 202.9C50.35 204.3 58.2 204.35 67 203.05C75.9 201.65 85.45 198.3 95.65 193C100.45 190.5 105.05 187.5 109.45 184C113.95 180.5 117.8 177 121 173.5C124.2 169.9 126.5 166.55 127.9 163.45C129.3 160.25 129.25 157.7 127.75 155.8C125.85 153.4 122.7 152 118.3 151.6C114 151.2 108.95 151.9 103.15 153.7C97.35 155.5 91.05 158.45 84.25 162.55C77.45 166.55 70.65 171.8 63.85 178.3Z" fill="white"/>
<path d="M182.984 113.12C182.152 112.608 182.024 111.2 182.984 111.2H202.568C210.44 111.2 219.784 114.336 219.784 123.488C219.784 130.848 210.312 135.84 205.64 135.84H203.592C211.144 135.84 214.472 138.272 218.056 144.928C221.128 150.688 222.472 153.184 224.968 153.888C226.312 154.272 226.12 156 224.84 156H210.12C209.16 156 209.16 154.656 210.056 154.08C211.464 153.184 209.416 148.384 208.52 146.464C205.96 141.152 204.488 136.416 198.472 136.416H196.424C196.488 144.288 196.744 152.48 199.24 154.08C200.2 154.656 200.2 156 199.24 156H182.984C182.024 156 182.152 154.592 182.984 154.08C185.672 152.48 185.544 142.24 185.544 133.6C185.544 124.96 185.928 114.848 182.984 113.12ZM202.568 113.12C195.272 113.12 196.424 124.96 196.424 133.6C196.424 133.92 196.424 134.176 196.424 134.496C205.32 134.304 208.904 131.104 208.904 123.872C208.904 117.472 206.6 113.12 202.568 113.12ZM227.765 147.808C227.765 141.984 237.429 140.192 241.973 138.4C246.005 136.8 250.101 136.288 250.357 132.576C250.165 127.904 249.205 124.704 245.685 124.704C242.229 124.704 241.205 128.864 240.117 131.488C239.093 133.92 237.237 134.88 235.381 134.88C232.949 134.88 230.581 133.088 230.453 130.336C230.133 123.616 240.949 122.784 245.493 122.784C252.981 122.784 261.173 126.048 261.173 138.656C261.173 144.096 260.853 152.224 263.861 154.016C264.693 154.528 264.821 156 261.365 156C254.389 156 251.765 153.632 250.805 150.432C249.269 153.76 246.325 156 241.333 156C232.757 156 227.765 152.416 227.765 147.808ZM243.957 139.744C240.885 141.088 238.645 143.136 238.645 148.064C238.645 149.6 239.669 153.824 243.637 153.824C249.269 153.824 250.293 146.976 250.293 142.624C250.293 140.384 250.357 138.208 250.357 136.224C248.757 137.696 246.325 138.72 243.957 139.744ZM283.124 157.28C274.292 157.28 265.78 150.24 265.78 140.128C265.78 129.824 273.716 122.784 282.164 122.784C292.98 122.784 296.884 131.744 298.1 136.096C298.612 137.312 297.78 138.4 296.244 138.4H275.188C277.108 144.864 281.204 152.032 287.412 152.032C292.404 152.032 295.22 148.576 296.116 147.232C296.5 146.656 296.948 146.4 297.396 146.4C298.1 146.4 298.548 147.104 298.036 148.256C296.308 151.904 290.74 157.28 283.124 157.28ZM274.676 136.48H289.46C288.116 132.832 284.724 125.344 279.412 125.344C276.084 125.344 273.972 127.648 273.972 131.168C273.972 132.576 274.228 134.432 274.676 136.48ZM301.469 140.128C301.469 129.824 309.661 122.784 318.557 122.784C324.573 122.784 329.565 124.448 332.317 129.952C334.173 133.6 330.845 136.8 327.389 136.8C325.533 136.8 323.549 135.904 322.333 133.6C320.029 129.312 316.637 125.792 313.693 125.792C311.581 125.792 309.661 127.328 309.661 131.168C309.661 138.912 314.973 152.032 322.973 152.032C328.221 152.032 330.909 148.576 331.805 147.232C332.189 146.656 332.637 146.4 333.085 146.4C333.789 146.4 334.237 147.104 333.725 148.256C331.997 151.904 326.493 157.28 318.557 157.28C310.109 157.28 301.469 150.368 301.469 140.128ZM353.312 157.28C344.48 157.28 335.968 150.24 335.968 140.128C335.968 129.824 343.904 122.784 352.352 122.784C363.168 122.784 367.072 131.744 368.288 136.096C368.8 137.312 367.968 138.4 366.432 138.4H345.376C347.296 144.864 351.392 152.032 357.6 152.032C362.592 152.032 365.408 148.576 366.304 147.232C366.688 146.656 367.136 146.4 367.583 146.4C368.288 146.4 368.736 147.104 368.224 148.256C366.496 151.904 360.928 157.28 353.312 157.28ZM344.864 136.48H359.648C358.304 132.832 354.912 125.344 349.6 125.344C346.272 125.344 344.16 127.648 344.16 131.168C344.16 132.576 344.416 134.432 344.864 136.48ZM370.867 156C369.907 156 370.035 154.592 370.867 154.08C373.491 152.48 373.555 148 373.555 144.48V123.104C373.555 119.264 373.171 114.848 370.867 113.504C370.035 112.992 369.907 111.712 370.867 111.584L382.643 110.112C383.731 109.984 384.435 110.624 384.435 111.712V141.216C384.435 144.096 384.115 152.288 387.123 154.08C387.955 154.592 388.083 156 387.123 156H370.867ZM391.117 156C390.157 156 390.285 154.592 391.117 154.08C393.741 152.48 393.805 148 393.805 144.48V123.104C393.805 119.264 393.421 114.848 391.117 113.504C390.285 112.992 390.157 111.712 391.117 111.584L402.893 110.112C403.981 109.984 404.685 110.624 404.685 111.712V141.216C404.685 144.096 404.365 152.288 407.373 154.08C408.205 154.592 408.333 156 407.373 156H391.117ZM427.416 156C426.456 156 426.392 154.592 427.416 154.08C431.32 152.16 435.736 142.24 438.488 134.752C442.583 123.68 446.232 114.272 443.096 113.12C441.88 112.672 442.135 111.2 443.096 111.2H453.4C454.232 111.2 455 111.776 455.256 112.608C456.856 117.28 461.208 129.248 462.808 133.6C465.944 142.24 469.784 152.48 472.984 154.08C474.008 154.592 473.944 156 472.984 156H457.432C456.472 156 456.472 154.592 457.432 154.08C458.904 153.312 457.432 148.512 455.384 142.88H438.552C436.504 148.256 434.904 153.184 436.568 154.08C437.528 154.592 437.528 156 436.568 156H427.416ZM441.688 134.752C441.176 136.288 440.472 137.952 439.832 139.68H454.168C451.736 133.216 449.432 126.752 447.128 120.224C445.08 124.512 443.416 129.888 441.688 134.752ZM497.664 122.784C504.512 122.784 512.768 126.048 512.768 138.656C512.768 144.096 512.448 152.288 515.456 154.08C516.288 154.592 516.416 156 515.456 156H499.2C498.24 156 498.368 154.592 499.2 154.08C501.824 152.48 501.888 144.096 501.888 140.704C501.888 136.736 503.296 124.64 496.768 124.64C491.328 124.64 490.624 130.208 490.56 132.192V138.656C490.56 144.096 490.24 152.288 493.248 154.08C494.08 154.592 494.208 156 493.248 156H476.992C476.032 156 476.16 154.592 476.992 154.08C479.616 152.48 479.68 146.784 479.68 143.52V134.816C479.68 131.488 479.488 127.328 476.992 125.856C476.16 125.344 476.032 124 476.992 123.936L488.704 122.912C489.792 122.848 490.56 123.552 490.56 124.64V126.24C491.84 124.384 494.016 122.784 497.664 122.784ZM540.289 122.784C547.137 122.784 555.393 126.048 555.393 138.656C555.393 144.096 555.073 152.288 558.081 154.08C558.913 154.592 559.041 156 558.081 156H541.825C540.865 156 540.993 154.592 541.825 154.08C544.449 152.48 544.513 144.096 544.513 140.704C544.513 136.736 545.921 124.64 539.393 124.64C533.953 124.64 533.249 130.208 533.185 132.192V138.656C533.185 144.096 532.865 152.288 535.873 154.08C536.705 154.592 536.833 156 535.873 156H519.617C518.657 156 518.785 154.592 519.617 154.08C522.241 152.48 522.305 146.784 522.305 143.52V134.816C522.305 131.488 522.113 127.328 519.617 125.856C518.785 125.344 518.657 124 519.617 123.936L531.329 122.912C532.417 122.848 533.185 123.552 533.185 124.64V126.24C534.465 124.384 536.641 122.784 540.289 122.784ZM562.754 125.984C561.538 125.344 560.962 124.064 561.282 122.848L563.458 114.592C564.034 112.416 565.442 111.2 567.234 111.2C568.002 111.2 568.77 111.392 569.602 111.776C572.61 113.248 573.25 115.872 571.266 118.432L566.146 125.152C565.634 125.856 564.802 126.24 563.97 126.24C563.586 126.24 563.138 126.176 562.754 125.984ZM574.776 149.664C574.072 146.336 576.824 144.032 579.576 144.032C581.24 144.032 582.904 144.928 583.736 146.912C585.272 150.688 588.92 155.232 592.503 155.232C594.808 155.232 595.96 153.632 595.96 151.84C595.96 144.096 576.056 142.304 576.056 131.936C576.056 125.984 581.688 122.784 591.992 122.784C596.664 122.784 603.128 124.64 604.856 128.672C606.392 132.128 603.768 135.136 600.696 135.136C599.096 135.136 597.368 134.304 596.088 132.32C592.952 127.328 591.608 124.768 589.496 124.768C587.448 124.768 586.936 126.88 586.936 128.16C586.936 137.888 606.776 139.296 606.776 147.616C606.776 154.272 599.032 157.28 590.904 157.28C585.784 157.28 576.056 155.552 574.776 149.664Z" fill="white"/>
</svg>
