<svg width="552" height="298" viewBox="0 0 552 298" fill="none" xmlns="http://www.w3.org/2000/svg">
<path d="M119.7 63.06C118.86 63.06 118.02 63.06 117.18 63.06C116.34 62.94 115.5 62.88 114.66 62.88C110.82 66.72 106.8 70.56 102.6 74.4C98.4 78.12 94.02 81.9 89.46 85.74C83.82 90.3 77.52 94.56 70.56 98.52C63.6 102.36 56.64 105.36 49.68 107.52C42.72 109.68 36.12 110.7 29.88 110.58C23.64 110.58 18.36 109.02 14.04 105.9C9.84 102.9 7.2 99 6.12 94.2C5.04 89.28 5.16 84 6.48 78.36C7.8 72.6 10.14 66.78 13.5 60.9C16.86 54.9 20.94 49.32 25.74 44.16C31.26 38.04 37.08 32.82 43.2 28.5C49.32 24.06 55.2 20.64 60.84 18.24C66.48 15.84 71.7 14.64 76.5 14.64C81.3 14.52 85.26 15.72 88.38 18.24C90.42 19.92 91.74 22.32 92.34 25.44C93.06 28.44 93.06 31.86 92.34 35.7C91.62 39.42 90.18 43.44 88.02 47.76C85.86 51.96 82.98 56.16 79.38 60.36C84.18 59.88 89.04 59.7 93.96 59.82C98.88 59.82 103.74 59.94 108.54 60.18C111.78 56.82 115.62 52.98 120.06 48.66C124.5 44.22 129.12 39.72 133.92 35.16C138.72 30.6 143.46 26.16 148.14 21.84C152.82 17.52 157.14 13.74 161.1 10.5C165.06 7.25999 168.36 4.73999 171 2.93999C173.76 1.14 175.56 0.479997 176.4 0.959998C176.88 1.2 177.42 1.55999 178.02 2.04C178.74 2.52 179.28 2.94 179.64 3.3C181.56 5.22 182.4 7.61999 182.16 10.5C182.04 13.26 180.78 16.74 178.38 20.94C175.98 25.02 172.56 29.88 168.12 35.52C163.68 41.16 158.22 47.7 151.74 55.14L145.8 61.98C150.36 61.98 153.9 61.56 156.42 60.72C157.38 60.48 157.8 60.6 157.68 61.08C157.68 61.56 157.38 61.92 156.78 62.16C154.74 62.88 152.64 63.42 150.48 63.78C148.44 64.02 146.22 64.2 143.82 64.32C133.26 77.04 125.64 87.12 120.96 94.56C116.4 101.88 114.24 105.78 114.48 106.26C114.6 106.5 114.48 106.68 114.12 106.8C113.88 107.04 113.58 107.04 113.22 106.8C110.7 105.36 109.56 103.08 109.8 99.96C110.16 96.84 111.36 93.3 113.4 89.34C115.44 85.26 118.02 81 121.14 76.56C124.38 72.12 127.62 67.92 130.86 63.96L119.7 63.06ZM85.5 81.42C88.74 78.66 92.1 75.72 95.58 72.6C99.06 69.36 102.66 65.94 106.38 62.34C101.82 62.1 97.02 61.98 91.98 61.98C87.06 61.98 82.14 62.22 77.22 62.7C74.7 65.34 71.88 67.92 68.76 70.44C65.76 72.96 62.46 75.3 58.86 77.46C56.46 78.9 54 80.1 51.48 81.06C49.08 82.02 46.8 82.68 44.64 83.04C42.6 83.4 40.74 83.46 39.06 83.22C37.5 82.98 36.36 82.38 35.64 81.42C34.68 80.22 34.5 78.96 35.1 77.64C35.7 76.2 36.72 74.82 38.16 73.5C39.72 72.18 41.58 70.98 43.74 69.9C45.9 68.7 48.06 67.62 50.22 66.66C53.94 65.1 57.84 63.9 61.92 63.06C66.12 62.1 70.5 61.32 75.06 60.72C78.78 56.76 81.84 52.74 84.24 48.66C86.76 44.46 88.56 40.5 89.64 36.78C90.72 33.06 91.02 29.7 90.54 26.7C90.18 23.7 88.92 21.3 86.76 19.5C84.6 17.7 81.54 16.74 77.58 16.62C73.62 16.5 69.06 17.52 63.9 19.68C58.86 21.72 53.22 25.02 46.98 29.58C40.86 34.02 34.44 40.02 27.72 47.58C23.88 51.9 20.28 56.76 16.92 62.16C13.68 67.44 11.28 72.72 9.72 78C8.16 83.28 7.74 88.26 8.46 92.94C9.18 97.5 11.52 101.22 15.48 104.1C22.08 109.02 31.38 109.8 43.38 106.44C55.38 103.08 69.42 94.74 85.5 81.42ZM119.88 60.9C122.04 61.14 124.2 61.32 126.36 61.44C128.52 61.56 130.62 61.68 132.66 61.8C135.3 58.68 137.7 55.86 139.86 53.34C142.14 50.82 144 48.78 145.44 47.22C150.96 40.98 155.46 35.64 158.94 31.2C162.54 26.76 165.42 22.98 167.58 19.86C169.86 16.74 171.54 14.16 172.62 12.12C173.7 9.95999 174.48 8.03999 174.96 6.35999C175.2 5.52 175.38 4.74 175.5 4.01999C175.62 3.17999 175.32 2.88 174.6 3.11999C169.68 6.47999 164.94 10.32 160.38 14.64C155.82 18.96 151.2 23.64 146.52 28.68C141.96 33.6 137.22 38.76 132.3 44.16C127.38 49.56 122.16 55.08 116.64 60.72C117.24 60.72 117.78 60.78 118.26 60.9C118.74 60.9 119.28 60.9 119.88 60.9ZM56.88 75.3C59.88 73.62 62.64 71.76 65.16 69.72C67.8 67.68 70.26 65.52 72.54 63.24C68.7 63.84 64.98 64.62 61.38 65.58C57.78 66.42 54.42 67.5 51.3 68.82C46.14 71.22 42.24 73.38 39.6 75.3C36.96 77.22 36.12 78.84 37.08 80.16C37.56 80.88 38.52 81.3 39.96 81.42C41.4 81.42 43.02 81.18 44.82 80.7C46.74 80.1 48.72 79.38 50.76 78.54C52.92 77.58 54.96 76.5 56.88 75.3Z" fill="white"/>
<path d="M199.54 228.92C195.94 228.56 192.52 227.72 189.28 226.4C186.04 225.2 183.16 223.58 180.64 221.54C178.12 219.5 176.02 217.1 174.34 214.34C172.66 211.58 171.58 208.46 171.1 204.98C170.62 201.74 170.8 198.62 171.64 195.62C172.48 192.62 173.8 189.98 175.6 187.7C177.52 185.42 179.8 183.56 182.44 182.12C185.2 180.68 188.2 179.84 191.44 179.6C193.12 179.6 194.08 179.96 194.32 180.68C194.56 181.28 194.02 181.46 192.7 181.22C189.7 181.46 186.94 182.18 184.42 183.38C181.9 184.58 179.74 186.2 177.94 188.24C176.14 190.28 174.82 192.74 173.98 195.62C173.14 198.38 172.96 201.38 173.44 204.62C173.68 207.14 174.46 209.72 175.78 212.36C177.22 214.88 179.08 217.22 181.36 219.38C183.76 221.42 186.58 223.16 189.82 224.6C193.18 226.04 197.02 226.82 201.34 226.94C204.58 227.06 208.06 226.82 211.78 226.22C215.62 225.62 219.82 224 224.38 221.36C228.94 218.84 234.04 215 239.68 209.84C245.44 204.68 251.86 197.54 258.94 188.42C264.82 180.86 270.04 173.06 274.6 165.02C279.28 156.98 283.84 149.54 288.28 142.7C292.72 135.74 297.4 129.92 302.32 125.24C307.24 120.44 312.94 117.56 319.42 116.6C324.34 115.88 328.36 116.3 331.48 117.86C334.72 119.42 337 121.46 338.32 123.98C339.28 125.66 339.76 127.46 339.76 129.38C339.76 131.18 339.34 132.86 338.5 134.42C337.78 135.98 336.76 137.3 335.44 138.38C334.12 139.34 332.56 139.88 330.76 140C330.52 140 330.04 139.94 329.32 139.82C328.72 139.7 328.54 139.52 328.78 139.28C332.62 136.88 335.02 134.36 335.98 131.72C337.06 129.08 337.06 126.68 335.98 124.52C334.9 122.36 332.92 120.68 330.04 119.48C327.28 118.28 323.98 117.98 320.14 118.58C315.1 119.42 310.9 121.22 307.54 123.98C304.18 126.74 301.18 130.28 298.54 134.6C296.02 138.8 293.62 143.66 291.34 149.18C289.06 154.58 286.48 160.34 283.6 166.46C280.72 172.46 277.3 178.7 273.34 185.18C269.5 191.54 264.7 197.84 258.94 204.08C254.38 209 249.52 213.14 244.36 216.5C239.32 219.86 234.22 222.5 229.06 224.42C223.9 226.46 218.8 227.84 213.76 228.56C208.72 229.28 203.98 229.4 199.54 228.92Z" fill="white"/>
<path d="M161.04 33.568V57.664C162.896 56.576 165.104 55.84 167.664 55.456C170.288 55.008 173.008 55.232 175.824 56.128C179.216 57.152 181.968 58.944 184.08 61.504C186.192 64.064 187.664 66.976 188.496 70.24C189.392 73.44 189.616 76.8 189.168 80.32C188.784 83.84 187.728 87.072 186 90.016C184.272 92.896 181.872 95.296 178.8 97.216C175.792 99.072 172.08 100 167.664 100C166.128 100 164.688 99.808 163.344 99.424C162.064 99.04 160.816 98.72 159.6 98.464C158.384 98.208 157.2 98.144 156.048 98.272C154.896 98.4 153.712 98.976 152.496 100L151.824 99.328C152.144 99.008 152.432 98.688 152.688 98.368C152.944 97.984 153.136 97.536 153.264 97.024C153.456 96.512 153.584 95.904 153.648 95.2C153.776 94.496 153.84 93.632 153.84 92.608V43.36C153.84 41.504 153.584 40.192 153.072 39.424C152.624 38.656 151.92 38.144 150.96 37.888V36.544C152.176 36.352 153.648 35.936 155.376 35.296C157.104 34.656 158.608 33.824 159.888 32.8L161.04 33.568ZM161.04 59.392V92.608C161.04 93.952 161.264 95.04 161.712 95.872C162.16 96.64 162.704 97.216 163.344 97.6C163.984 97.984 164.688 98.24 165.456 98.368C166.288 98.496 167.024 98.56 167.664 98.56C170.608 98.624 173.072 97.856 175.056 96.256C177.04 94.592 178.608 92.48 179.76 89.92C180.912 87.296 181.648 84.416 181.968 81.28C182.288 78.08 182.224 75.008 181.776 72.064C181.392 69.056 180.624 66.336 179.472 63.904C178.32 61.472 176.816 59.712 174.96 58.624C173.744 57.856 172.496 57.376 171.216 57.184C169.936 56.992 168.688 56.96 167.472 57.088C166.32 57.216 165.168 57.504 164.016 57.952C162.928 58.4 161.936 58.88 161.04 59.392ZM211.589 100C208.453 100 205.701 99.36 203.333 98.08C201.029 96.736 199.077 95.008 197.477 92.896C195.941 90.72 194.757 88.288 193.925 85.6C193.157 82.848 192.773 80.032 192.773 77.152C192.773 74.272 193.157 71.488 193.925 68.8C194.757 66.048 195.941 63.616 197.477 61.504C199.077 59.328 201.029 57.6 203.333 56.32C205.701 54.976 208.453 54.304 211.589 54.304C214.725 54.304 217.477 54.976 219.845 56.32C222.213 57.6 224.165 59.328 225.701 61.504C227.301 63.616 228.485 66.048 229.253 68.8C230.085 71.488 230.501 74.272 230.501 77.152C230.501 80.032 230.085 82.848 229.253 85.6C228.485 88.288 227.301 90.72 225.701 92.896C224.165 95.008 222.213 96.736 219.845 98.08C217.477 99.36 214.725 100 211.589 100ZM211.589 98.56C214.213 98.56 216.389 97.504 218.117 95.392C219.845 93.28 221.125 90.656 221.957 87.52C222.789 84.32 223.205 80.864 223.205 77.152C223.205 73.44 222.757 70.016 221.861 66.88C221.029 63.68 219.749 61.024 218.021 58.912C216.293 56.8 214.149 55.744 211.589 55.744C209.093 55.744 206.981 56.8 205.253 58.912C203.525 61.024 202.213 63.68 201.317 66.88C200.485 70.016 200.037 73.44 199.973 77.152C199.973 80.864 200.389 84.32 201.221 87.52C202.117 90.656 203.397 93.28 205.061 95.392C206.789 97.504 208.965 98.56 211.589 98.56ZM261.613 99.232V95.488C258.925 97.472 256.077 98.816 253.069 99.52C250.061 100.224 247.277 100.224 244.717 99.52C242.221 98.752 240.141 97.28 238.477 95.104C236.877 92.928 236.077 89.92 236.077 86.08V63.136C236.077 60.96 235.821 59.36 235.309 58.336C234.861 57.248 233.901 56.704 232.429 56.704V55.264H246.925V56.704C245.453 56.704 244.461 57.248 243.949 58.336C243.501 59.36 243.277 60.96 243.277 63.136V85.696C243.277 88.832 243.725 91.36 244.621 93.28C245.581 95.2 246.893 96.512 248.557 97.216C250.221 97.92 252.173 97.984 254.413 97.408C256.653 96.768 259.053 95.488 261.613 93.568V63.136C261.613 60.96 261.357 59.36 260.845 58.336C260.397 57.248 259.437 56.704 257.965 56.704V55.264H272.461V56.704C270.989 56.704 269.997 57.248 269.485 58.336C269.037 59.36 268.813 60.96 268.813 63.136V89.44C268.813 91.296 269.037 92.608 269.485 93.376C269.997 94.144 270.733 94.656 271.693 94.912V96.256C270.477 96.448 269.005 96.864 267.277 97.504C265.549 98.144 264.045 98.976 262.765 100L261.613 99.232ZM286.335 93.088C286.335 94.88 286.527 96.128 286.911 96.832C287.295 97.472 287.775 97.824 288.351 97.888C288.927 97.888 289.535 97.664 290.175 97.216C290.815 96.768 291.359 96.32 291.807 95.872L292.863 96.832C291.903 97.92 290.655 98.784 289.119 99.424C287.583 100.064 286.047 100.256 284.511 100C283.039 99.744 281.759 98.944 280.671 97.6C279.647 96.256 279.135 94.112 279.135 91.168V56.704H274.335V55.264C277.151 54.688 279.391 53.696 281.055 52.288C282.719 50.816 283.999 48.864 284.895 46.432H286.335V55.264H293.055V56.704H286.335V93.088ZM350.273 93.088C350.273 94.88 350.465 96.128 350.849 96.832C351.233 97.472 351.713 97.824 352.289 97.888C352.865 97.888 353.473 97.664 354.113 97.216C354.753 96.768 355.297 96.32 355.745 95.872L356.801 96.832C355.841 97.92 354.593 98.784 353.057 99.424C351.521 100.064 349.985 100.256 348.449 100C346.977 99.744 345.697 98.944 344.609 97.6C343.585 96.256 343.073 94.112 343.073 91.168V56.704H338.273V55.264C341.089 54.688 343.329 53.696 344.993 52.288C346.657 50.816 347.937 48.864 348.833 46.432H350.273V55.264H356.993V56.704H350.273V93.088ZM369.746 33.568V59.776C372.434 57.792 375.282 56.448 378.29 55.744C381.298 55.04 384.05 55.072 386.546 55.84C389.106 56.544 391.186 57.984 392.786 60.16C394.45 62.336 395.282 65.344 395.282 69.184V92.128C395.282 94.304 395.506 95.936 395.954 97.024C396.466 98.048 397.458 98.56 398.93 98.56V100H384.434V98.56C385.906 98.56 386.866 98.048 387.314 97.024C387.826 95.936 388.082 94.304 388.082 92.128V69.568C388.082 66.432 387.602 63.904 386.642 61.984C385.746 60.064 384.466 58.752 382.802 58.048C381.138 57.344 379.186 57.312 376.946 57.952C374.77 58.528 372.37 59.776 369.746 61.696V92.128C369.746 94.304 369.97 95.936 370.418 97.024C370.93 98.048 371.922 98.56 373.394 98.56V100H358.898V98.56C360.37 98.56 361.33 98.048 361.778 97.024C362.29 95.936 362.546 94.304 362.546 92.128V43.36C362.546 41.504 362.29 40.192 361.778 39.424C361.33 38.656 360.626 38.144 359.666 37.888V36.544C360.882 36.352 362.354 35.936 364.082 35.296C365.81 34.656 367.314 33.824 368.594 32.8L369.746 33.568ZM421.156 98.464C421.924 98.464 422.788 98.432 423.748 98.368C424.772 98.24 425.828 97.952 426.916 97.504C428.004 96.992 429.124 96.288 430.276 95.392C431.492 94.432 432.676 93.152 433.828 91.552L434.98 92.416C432.932 95.296 430.724 97.28 428.356 98.368C425.988 99.392 423.588 99.936 421.156 100C417.892 100.064 414.98 99.456 412.42 98.176C409.924 96.896 407.812 95.2 406.084 93.088C404.42 90.976 403.14 88.544 402.244 85.792C401.348 83.04 400.868 80.256 400.804 77.44C400.74 74.56 401.092 71.744 401.86 68.992C402.692 66.24 403.94 63.776 405.604 61.6C407.332 59.424 409.476 57.696 412.036 56.416C414.596 55.072 417.636 54.4 421.156 54.4C422.884 54.4 424.676 54.784 426.532 55.552C428.388 56.32 430.084 57.44 431.62 58.912C433.156 60.384 434.404 62.24 435.364 64.48C436.388 66.656 436.9 69.184 436.9 72.064H408.388C407.94 75.072 407.876 78.144 408.196 81.28C408.58 84.352 409.316 87.168 410.404 89.728C411.556 92.224 413.028 94.304 414.82 95.968C416.612 97.568 418.724 98.4 421.156 98.464ZM430.084 70.624C430.084 66.144 429.348 62.56 427.876 59.872C426.468 57.184 424.228 55.84 421.156 55.84C419.492 55.84 417.956 56.224 416.548 56.992C415.204 57.76 413.988 58.816 412.9 60.16C411.876 61.504 410.98 63.072 410.212 64.864C409.508 66.656 408.964 68.576 408.58 70.624H430.084Z" fill="white"/>
<path d="M270.384 187.592C271.28 189.384 272.656 191.016 274.512 192.488C276.368 193.96 278.256 195.464 280.176 197C282.096 198.472 283.856 200.04 285.456 201.704C287.12 203.368 288.208 205.352 288.72 207.656C289.232 209.96 289.168 211.976 288.528 213.704C287.952 215.432 286.96 216.904 285.552 218.12C284.144 219.336 282.416 220.264 280.368 220.904C278.384 221.48 276.208 221.768 273.84 221.768C272.24 221.768 270.672 221.576 269.136 221.192C267.6 220.808 266.16 220.232 264.816 219.464C263.472 218.696 262.32 217.768 261.36 216.68C260.4 215.592 259.696 214.344 259.248 212.936C258.864 211.784 258.896 210.856 259.344 210.152C259.792 209.448 260.368 209 261.072 208.808C261.776 208.616 262.48 208.744 263.184 209.192C263.888 209.64 264.368 210.44 264.624 211.592C265.072 213.768 266.064 215.752 267.6 217.544C269.2 219.336 271.28 220.264 273.84 220.328C275.504 220.328 277.008 220.04 278.352 219.464C279.76 218.888 280.848 218.056 281.616 216.968C282.384 215.88 282.8 214.6 282.864 213.128C282.928 211.592 282.48 209.896 281.52 208.04C280.624 206.376 279.184 204.904 277.2 203.624C275.28 202.344 273.296 201.032 271.248 199.688C269.2 198.28 267.376 196.712 265.776 194.984C264.176 193.256 263.28 191.112 263.088 188.552C262.896 186.184 263.216 184.136 264.048 182.408C264.944 180.616 266.096 179.144 267.504 177.992C268.976 176.776 270.64 175.912 272.496 175.4C274.352 174.824 276.176 174.536 277.968 174.536C279.056 174.536 280.176 174.664 281.328 174.92C282.48 175.176 283.568 175.592 284.592 176.168C285.68 176.744 286.64 177.512 287.472 178.472C288.304 179.432 288.944 180.616 289.392 182.024C289.776 183.176 289.744 184.104 289.296 184.808C288.848 185.512 288.272 185.96 287.568 186.152C286.864 186.344 286.128 186.216 285.36 185.768C284.656 185.32 284.176 184.52 283.92 183.368C283.472 181.192 282.832 179.496 282 178.28C281.232 177 279.888 176.232 277.968 175.976C276.368 175.784 274.896 175.976 273.552 176.552C272.272 177.128 271.248 177.992 270.48 179.144C269.776 180.232 269.36 181.512 269.232 182.984C269.168 184.456 269.552 185.992 270.384 187.592ZM311.937 219.464C312.705 219.464 313.569 219.432 314.529 219.368C315.553 219.24 316.609 218.952 317.697 218.504C318.785 217.992 319.905 217.288 321.057 216.392C322.273 215.432 323.457 214.152 324.609 212.552L325.761 213.416C323.713 216.296 321.505 218.28 319.137 219.368C316.769 220.392 314.369 220.936 311.937 221C308.673 221.064 305.761 220.456 303.201 219.176C300.705 217.896 298.593 216.2 296.865 214.088C295.201 211.976 293.921 209.544 293.025 206.792C292.129 204.04 291.649 201.256 291.585 198.44C291.521 195.56 291.873 192.744 292.641 189.992C293.473 187.24 294.721 184.776 296.385 182.6C298.113 180.424 300.257 178.696 302.817 177.416C305.377 176.072 308.417 175.4 311.937 175.4C313.665 175.4 315.457 175.784 317.313 176.552C319.169 177.32 320.865 178.44 322.401 179.912C323.937 181.384 325.185 183.24 326.145 185.48C327.169 187.656 327.681 190.184 327.681 193.064H299.169C298.721 196.072 298.657 199.144 298.977 202.28C299.361 205.352 300.097 208.168 301.185 210.728C302.337 213.224 303.809 215.304 305.601 216.968C307.393 218.568 309.505 219.4 311.937 219.464ZM320.865 191.624C320.865 187.144 320.129 183.56 318.657 180.872C317.249 178.184 315.009 176.84 311.937 176.84C310.273 176.84 308.737 177.224 307.329 177.992C305.985 178.76 304.769 179.816 303.681 181.16C302.657 182.504 301.761 184.072 300.993 185.864C300.289 187.656 299.745 189.576 299.361 191.624H320.865ZM340.496 213.128C340.496 215.304 340.72 216.936 341.168 218.024C341.68 219.048 342.672 219.56 344.144 219.56V221H329.648V219.56C331.12 219.56 332.08 219.048 332.528 218.024C333.04 216.936 333.296 215.304 333.296 213.128V164.36C333.296 162.504 333.04 161.192 332.528 160.424C332.08 159.656 331.376 159.144 330.416 158.888V157.544C331.632 157.352 333.104 156.936 334.832 156.296C336.56 155.656 338.064 154.824 339.344 153.8L340.496 154.568V213.128ZM356.902 213.128C356.902 215.304 357.126 216.936 357.574 218.024C358.086 219.048 359.078 219.56 360.55 219.56V221H346.054V219.56C347.526 219.56 348.486 219.048 348.934 218.024C349.446 216.936 349.702 215.304 349.702 213.128V164.36C349.702 162.504 349.446 161.192 348.934 160.424C348.486 159.656 347.782 159.144 346.822 158.888V157.544C348.038 157.352 349.51 156.936 351.238 156.296C352.966 155.656 354.47 154.824 355.75 153.8L356.902 154.568V213.128ZM382.812 219.464C383.58 219.464 384.444 219.432 385.404 219.368C386.428 219.24 387.484 218.952 388.572 218.504C389.66 217.992 390.78 217.288 391.932 216.392C393.148 215.432 394.332 214.152 395.484 212.552L396.636 213.416C394.588 216.296 392.38 218.28 390.012 219.368C387.644 220.392 385.244 220.936 382.812 221C379.548 221.064 376.636 220.456 374.076 219.176C371.58 217.896 369.468 216.2 367.74 214.088C366.076 211.976 364.796 209.544 363.9 206.792C363.004 204.04 362.524 201.256 362.46 198.44C362.396 195.56 362.748 192.744 363.516 189.992C364.348 187.24 365.596 184.776 367.26 182.6C368.988 180.424 371.132 178.696 373.692 177.416C376.252 176.072 379.292 175.4 382.812 175.4C384.54 175.4 386.332 175.784 388.188 176.552C390.044 177.32 391.74 178.44 393.276 179.912C394.812 181.384 396.06 183.24 397.02 185.48C398.044 187.656 398.556 190.184 398.556 193.064H370.044C369.596 196.072 369.532 199.144 369.852 202.28C370.236 205.352 370.972 208.168 372.06 210.728C373.212 213.224 374.684 215.304 376.476 216.968C378.268 218.568 380.38 219.4 382.812 219.464ZM391.74 191.624C391.74 187.144 391.004 183.56 389.532 180.872C388.124 178.184 385.884 176.84 382.812 176.84C381.148 176.84 379.612 177.224 378.204 177.992C376.86 178.76 375.644 179.816 374.556 181.16C373.532 182.504 372.636 184.072 371.868 185.864C371.164 187.656 370.62 189.576 370.236 191.624H391.74ZM411.371 177.032L411.467 188.744C412.235 186.952 413.131 185.256 414.155 183.656C415.179 181.992 416.267 180.52 417.419 179.24C418.571 177.96 419.787 176.904 421.067 176.072C422.347 175.176 423.627 174.6 424.906 174.344C426.443 174.024 427.915 173.992 429.323 174.248C430.795 174.504 432.075 174.952 433.163 175.592C434.251 176.232 435.147 177.032 435.851 177.992C436.619 178.888 437.099 179.816 437.291 180.776C437.483 181.608 437.387 182.344 437.003 182.984C436.683 183.56 436.235 183.976 435.659 184.232C435.083 184.488 434.475 184.552 433.835 184.424C433.195 184.232 432.619 183.784 432.107 183.08C431.467 182.12 430.859 181.224 430.283 180.392C429.771 179.496 429.227 178.728 428.651 178.088C428.139 177.448 427.563 176.968 426.923 176.648C426.347 176.264 425.643 176.136 424.811 176.264C423.595 176.392 422.187 177.096 420.587 178.376C419.051 179.656 417.579 181.448 416.171 183.752C414.827 185.992 413.675 188.776 412.715 192.104C411.819 195.368 411.371 199.08 411.371 203.24V213.128C411.371 215.304 411.595 216.936 412.043 218.024C412.555 219.048 413.547 219.56 415.019 219.56V221H400.523V219.56C401.995 219.56 402.955 219.048 403.403 218.024C403.915 216.936 404.171 215.304 404.171 213.128V186.824C404.171 184.968 403.915 183.656 403.403 182.888C402.955 182.12 402.251 181.608 401.291 181.352V180.008C402.507 179.816 403.979 179.4 405.707 178.76C407.435 178.12 408.939 177.288 410.219 176.264L411.371 177.032Z" fill="white"/>
</svg>
