<svg width="698" height="251" viewBox="0 0 698 251" fill="none" xmlns="http://www.w3.org/2000/svg">
<path d="M4.608 47V2.008H13.312V47H4.608ZM32.832 47V2.008H41.536V47H32.832ZM10.112 27.608V19.928H35.264V27.608H10.112ZM68.621 47.64C65.3783 47.64 62.4983 46.9573 59.981 45.592C57.4637 44.184 55.4583 42.264 53.965 39.832C52.5143 37.4 51.789 34.6267 51.789 31.512C51.789 28.44 52.493 25.7093 53.901 23.32C55.3517 20.888 57.3143 18.968 59.789 17.56C62.2637 16.1093 65.0157 15.384 68.045 15.384C71.0317 15.384 73.6557 16.0667 75.917 17.432C78.221 18.7547 80.013 20.5893 81.293 22.936C82.6157 25.24 83.277 27.864 83.277 30.808C83.277 31.3627 83.2343 31.9387 83.149 32.536C83.1063 33.0907 82.9997 33.7307 82.829 34.456L56.845 34.52V28.248L78.925 28.184L75.533 30.808C75.4477 28.9733 75.1063 27.4373 74.509 26.2C73.9543 24.9627 73.1223 24.024 72.013 23.384C70.9463 22.7013 69.6237 22.36 68.045 22.36C66.381 22.36 64.9303 22.744 63.693 23.512C62.4557 24.2373 61.4957 25.2827 60.813 26.648C60.173 27.9707 59.853 29.5493 59.853 31.384C59.853 33.2613 60.1943 34.904 60.877 36.312C61.6023 37.6773 62.6263 38.744 63.949 39.512C65.2717 40.2373 66.8077 40.6 68.557 40.6C70.1357 40.6 71.565 40.344 72.845 39.832C74.125 39.2773 75.2343 38.4667 76.173 37.4L81.101 42.328C79.6077 44.0773 77.773 45.4 75.597 46.296C73.4637 47.192 71.1383 47.64 68.621 47.64ZM92.462 47V0.727997H100.846V47H92.462ZM112.275 47V0.727997H120.659V47H112.275ZM146.615 47.64C143.5 47.64 140.684 46.936 138.167 45.528C135.692 44.0773 133.708 42.136 132.215 39.704C130.764 37.2293 130.039 34.4773 130.039 31.448C130.039 28.4187 130.764 25.7093 132.215 23.32C133.666 20.888 135.65 18.968 138.167 17.56C140.684 16.1093 143.479 15.384 146.551 15.384C149.708 15.384 152.524 16.1093 154.999 17.56C157.516 18.968 159.5 20.888 160.951 23.32C162.402 25.7093 163.127 28.4187 163.127 31.448C163.127 34.4773 162.402 37.2293 160.951 39.704C159.5 42.136 157.516 44.0773 154.999 45.528C152.524 46.936 149.73 47.64 146.615 47.64ZM146.551 39.832C148.13 39.832 149.516 39.4907 150.711 38.808C151.948 38.0827 152.887 37.1013 153.527 35.864C154.21 34.584 154.551 33.1333 154.551 31.512C154.551 29.8907 154.21 28.4613 153.527 27.224C152.844 25.9867 151.906 25.0267 150.711 24.344C149.516 23.6187 148.13 23.256 146.551 23.256C145.015 23.256 143.65 23.6187 142.455 24.344C141.26 25.0267 140.322 25.9867 139.639 27.224C138.956 28.4613 138.615 29.8907 138.615 31.512C138.615 33.1333 138.956 34.584 139.639 35.864C140.322 37.1013 141.26 38.0827 142.455 38.808C143.65 39.4907 145.015 39.832 146.551 39.832ZM171.523 54.616L176.067 46.168L178.691 45.464C178.392 46.0187 178.051 46.488 177.667 46.872C177.283 47.256 176.835 47.448 176.323 47.448C175.256 47.448 174.254 46.9787 173.315 46.04C172.376 45.1013 171.907 43.928 171.907 42.52C171.907 40.984 172.419 39.6827 173.443 38.616C174.467 37.5493 175.747 37.016 177.283 37.016C178.691 37.016 179.928 37.5493 180.995 38.616C182.062 39.6827 182.595 40.984 182.595 42.52C182.595 43.1173 182.467 43.8427 182.211 44.696C181.955 45.5067 181.486 46.552 180.803 47.832L175.875 56.92L171.523 54.616ZM210.921 47V2.008H219.625V47H210.921ZM231.194 18.904L235.674 10.52L238.362 9.752C238.063 10.3493 237.722 10.84 237.338 11.224C236.954 11.5653 236.506 11.736 235.994 11.736C234.885 11.736 233.861 11.288 232.922 10.392C232.026 9.45333 231.578 8.28 231.578 6.872C231.578 5.336 232.09 4.03466 233.114 2.968C234.138 1.90133 235.397 1.368 236.89 1.368C238.341 1.368 239.599 1.90133 240.666 2.968C241.733 4.03466 242.266 5.336 242.266 6.872C242.266 7.46933 242.138 8.19466 241.882 9.048C241.626 9.85867 241.157 10.904 240.474 12.184L235.546 21.272L231.194 18.904ZM250.15 47V16.088H258.534V47H250.15ZM270.31 47V28.76C270.31 26.968 269.734 25.5813 268.582 24.6C267.472 23.576 266.086 23.064 264.422 23.064C263.312 23.064 262.31 23.2987 261.414 23.768C260.518 24.1947 259.814 24.8347 259.302 25.688C258.79 26.5413 258.534 27.5653 258.534 28.76L255.27 27.16C255.27 24.7707 255.782 22.7013 256.806 20.952C257.872 19.2027 259.302 17.8587 261.094 16.92C262.886 15.9387 264.912 15.448 267.174 15.448C269.307 15.448 271.248 15.9387 272.998 16.92C274.747 17.8587 276.134 19.2027 277.158 20.952C278.182 22.6587 278.694 24.728 278.694 27.16V47H270.31ZM290.47 47V28.76C290.47 26.968 289.894 25.5813 288.742 24.6C287.632 23.576 286.246 23.064 284.582 23.064C283.515 23.064 282.512 23.2987 281.574 23.768C280.678 24.1947 279.974 24.8347 279.462 25.688C278.95 26.5413 278.694 27.5653 278.694 28.76L273.894 27.608C274.064 25.1333 274.726 23 275.878 21.208C277.03 19.3733 278.544 17.9653 280.422 16.984C282.299 15.96 284.39 15.448 286.694 15.448C288.998 15.448 291.067 15.9387 292.902 16.92C294.736 17.8587 296.187 19.224 297.254 21.016C298.32 22.808 298.854 24.9413 298.854 27.416V47H290.47Z" fill="white"/>
<path d="M57.976 66.68C56.728 65.912 56.536 63.8 57.976 63.8H87.352C99.16 63.8 113.176 68.504 113.176 82.232C113.176 93.272 98.968 100.76 91.96 100.76H88.888C100.216 100.76 105.208 104.408 110.584 114.392C115.192 123.032 117.208 126.776 120.952 127.832C122.968 128.408 122.68 131 120.76 131H98.68C97.24 131 97.24 128.984 98.584 128.12C100.696 126.776 97.624 119.576 96.28 116.696C92.44 108.728 90.232 101.624 81.208 101.624H78.136C78.232 113.432 78.616 125.72 82.36 128.12C83.8 128.984 83.8 131 82.36 131H57.976C56.536 131 56.728 128.888 57.976 128.12C62.008 125.72 61.816 110.36 61.816 97.4C61.816 84.44 62.392 69.272 57.976 66.68ZM87.352 66.68C76.408 66.68 78.136 84.44 78.136 97.4C78.136 97.88 78.136 98.264 78.136 98.744C91.48 98.456 96.856 93.656 96.856 82.808C96.856 73.208 93.4 66.68 87.352 66.68ZM125.148 118.712C125.148 109.976 139.644 107.288 146.46 104.6C152.508 102.2 158.652 101.432 159.036 95.864C158.748 88.856 157.308 84.056 152.028 84.056C146.844 84.056 145.308 90.296 143.676 94.232C142.14 97.88 139.356 99.32 136.572 99.32C132.924 99.32 129.372 96.632 129.18 92.504C128.7 82.424 144.924 81.176 151.74 81.176C162.972 81.176 175.26 86.072 175.26 104.984C175.26 113.144 174.78 125.336 179.292 128.024C180.54 128.792 180.732 131 175.548 131C165.084 131 161.148 127.448 159.708 122.648C157.404 127.64 152.988 131 145.5 131C132.636 131 125.148 125.624 125.148 118.712ZM149.436 106.616C144.828 108.632 141.468 111.704 141.468 119.096C141.468 121.4 143.004 127.736 148.956 127.736C157.404 127.736 158.94 117.464 158.94 110.936C158.94 107.576 159.036 104.312 159.036 101.336C156.636 103.544 152.988 105.08 149.436 106.616ZM208.186 132.92C194.938 132.92 182.17 122.36 182.17 107.192C182.17 91.736 194.074 81.176 206.746 81.176C222.97 81.176 228.826 94.616 230.65 101.144C231.418 102.968 230.17 104.6 227.866 104.6H196.282C199.162 114.296 205.306 125.048 214.618 125.048C222.106 125.048 226.33 119.864 227.674 117.848C228.25 116.984 228.922 116.6 229.594 116.6C230.65 116.6 231.322 117.656 230.554 119.384C227.962 124.856 219.61 132.92 208.186 132.92ZM195.514 101.72H217.69C215.674 96.248 210.586 85.016 202.618 85.016C197.626 85.016 194.458 88.472 194.458 93.752C194.458 95.864 194.842 98.648 195.514 101.72ZM235.704 107.192C235.704 91.736 247.992 81.176 261.336 81.176C270.36 81.176 277.848 83.672 281.976 91.928C284.76 97.4 279.768 102.2 274.584 102.2C271.8 102.2 268.824 100.856 267 97.4C263.544 90.968 258.456 85.688 254.04 85.688C250.872 85.688 247.992 87.992 247.992 93.752C247.992 105.368 255.96 125.048 267.96 125.048C275.832 125.048 279.864 119.864 281.208 117.848C281.784 116.984 282.456 116.6 283.128 116.6C284.184 116.6 284.856 117.656 284.088 119.384C281.496 124.856 273.24 132.92 261.336 132.92C248.664 132.92 235.704 122.552 235.704 107.192ZM313.467 132.92C300.219 132.92 287.451 122.36 287.451 107.192C287.451 91.736 299.355 81.176 312.027 81.176C328.251 81.176 334.107 94.616 335.931 101.144C336.699 102.968 335.451 104.6 333.147 104.6H301.563C304.443 114.296 310.587 125.048 319.899 125.048C327.387 125.048 331.611 119.864 332.955 117.848C333.531 116.984 334.203 116.6 334.875 116.6C335.931 116.6 336.603 117.656 335.835 119.384C333.243 124.856 324.891 132.92 313.467 132.92ZM300.795 101.72H322.971C320.955 96.248 315.867 85.016 307.899 85.016C302.907 85.016 299.739 88.472 299.739 93.752C299.739 95.864 300.123 98.648 300.795 101.72ZM339.8 131C338.36 131 338.552 128.888 339.8 128.12C343.736 125.72 343.832 119 343.832 113.72V81.656C343.832 75.896 343.256 69.272 339.8 67.256C338.552 66.488 338.36 64.568 339.8 64.376L357.464 62.168C359.096 61.976 360.152 62.936 360.152 64.568V108.824C360.152 113.144 359.672 125.432 364.184 128.12C365.432 128.888 365.624 131 364.184 131H339.8ZM370.175 131C368.735 131 368.927 128.888 370.175 128.12C374.111 125.72 374.207 119 374.207 113.72V81.656C374.207 75.896 373.631 69.272 370.175 67.256C368.927 66.488 368.735 64.568 370.175 64.376L387.839 62.168C389.471 61.976 390.527 62.936 390.527 64.568V108.824C390.527 113.144 390.047 125.432 394.559 128.12C395.807 128.888 395.999 131 394.559 131H370.175ZM424.623 131C423.183 131 423.087 128.888 424.623 128.12C430.479 125.24 437.103 110.36 441.231 99.128C447.375 82.52 452.847 68.408 448.143 66.68C446.319 66.008 446.703 63.8 448.143 63.8H463.599C464.847 63.8 465.999 64.664 466.383 65.912C468.783 72.92 475.311 90.872 477.711 97.4C482.415 110.36 488.175 125.72 492.975 128.12C494.511 128.888 494.415 131 492.975 131H469.647C468.207 131 468.207 128.888 469.647 128.12C471.855 126.968 469.647 119.768 466.575 111.32H441.327C438.255 119.384 435.855 126.776 438.351 128.12C439.791 128.888 439.791 131 438.351 131H424.623ZM446.031 99.128C445.263 101.432 444.207 103.928 443.247 106.52H464.751C461.103 96.824 457.647 87.128 454.191 77.336C451.119 83.768 448.623 91.832 446.031 99.128ZM529.995 81.176C540.267 81.176 552.651 86.072 552.651 104.984C552.651 113.144 552.171 125.432 556.683 128.12C557.931 128.888 558.123 131 556.683 131H532.299C530.859 131 531.051 128.888 532.299 128.12C536.235 125.72 536.331 113.144 536.331 108.056C536.331 102.104 538.443 83.96 528.651 83.96C520.491 83.96 519.435 92.312 519.339 95.288V104.984C519.339 113.144 518.859 125.432 523.371 128.12C524.619 128.888 524.811 131 523.371 131H498.987C497.547 131 497.739 128.888 498.987 128.12C502.923 125.72 503.019 117.176 503.019 112.28V99.224C503.019 94.232 502.731 87.992 498.987 85.784C497.739 85.016 497.547 83 498.987 82.904L516.555 81.368C518.187 81.272 519.339 82.328 519.339 83.96V86.36C521.259 83.576 524.523 81.176 529.995 81.176ZM593.933 81.176C604.205 81.176 616.589 86.072 616.589 104.984C616.589 113.144 616.109 125.432 620.621 128.12C621.869 128.888 622.061 131 620.621 131H596.237C594.797 131 594.989 128.888 596.237 128.12C600.173 125.72 600.269 113.144 600.269 108.056C600.269 102.104 602.381 83.96 592.589 83.96C584.429 83.96 583.373 92.312 583.277 95.288V104.984C583.277 113.144 582.797 125.432 587.309 128.12C588.557 128.888 588.749 131 587.309 131H562.925C561.485 131 561.677 128.888 562.925 128.12C566.861 125.72 566.957 117.176 566.957 112.28V99.224C566.957 94.232 566.669 87.992 562.925 85.784C561.677 85.016 561.485 83 562.925 82.904L580.493 81.368C582.125 81.272 583.277 82.328 583.277 83.96V86.36C585.197 83.576 588.461 81.176 593.933 81.176Z" fill="white"/>
<path d="M10.944 187.32C9.30133 187.32 7.82933 186.957 6.528 186.232C5.248 185.485 4.23467 184.472 3.488 183.192C2.74133 181.891 2.368 180.419 2.368 178.776V164.792H5.376V178.712C5.376 179.885 5.62133 180.899 6.112 181.752C6.60267 182.605 7.264 183.267 8.096 183.736C8.94933 184.205 9.89867 184.44 10.944 184.44C12.032 184.44 12.9813 184.205 13.792 183.736C14.624 183.267 15.2747 182.605 15.744 181.752C16.2347 180.899 16.48 179.896 16.48 178.744V164.792H19.52V178.808C19.52 180.451 19.1467 181.912 18.4 183.192C17.6533 184.472 16.64 185.485 15.36 186.232C14.08 186.957 12.608 187.32 10.944 187.32ZM24.4678 187V164.792H27.4758V187H24.4678ZM41.358 187V184.248H47.534C49.1767 184.248 50.6167 183.896 51.854 183.192C53.0913 182.467 54.0513 181.475 54.734 180.216C55.438 178.957 55.79 177.507 55.79 175.864C55.79 174.243 55.438 172.803 54.734 171.544C54.03 170.285 53.0593 169.304 51.822 168.6C50.5847 167.896 49.1553 167.544 47.534 167.544H41.39V164.792H47.598C49.2193 164.792 50.7127 165.069 52.078 165.624C53.4647 166.179 54.6593 166.957 55.662 167.96C56.686 168.963 57.4753 170.136 58.03 171.48C58.606 172.824 58.894 174.296 58.894 175.896C58.894 177.475 58.606 178.947 58.03 180.312C57.4753 181.656 56.6967 182.829 55.694 183.832C54.6913 184.835 53.4967 185.613 52.11 186.168C50.7447 186.723 49.262 187 47.662 187H41.358ZM39.374 187V164.792H42.382V187H39.374ZM69.5895 187.32C68.0748 187.32 66.7095 186.979 65.4935 186.296C64.2775 185.592 63.3175 184.643 62.6135 183.448C61.9095 182.253 61.5575 180.899 61.5575 179.384C61.5575 177.891 61.8988 176.547 62.5815 175.352C63.2855 174.157 64.2242 173.219 65.3975 172.536C66.5922 171.832 67.9255 171.48 69.3975 171.48C70.8055 171.48 72.0428 171.8 73.1095 172.44C74.1975 173.08 75.0402 173.965 75.6375 175.096C76.2562 176.227 76.5655 177.507 76.5655 178.936C76.5655 179.149 76.5548 179.384 76.5335 179.64C76.5122 179.875 76.4695 180.152 76.4055 180.472H63.5735V178.072H74.8695L73.8135 179C73.8135 177.976 73.6322 177.112 73.2695 176.408C72.9068 175.683 72.3948 175.128 71.7335 174.744C71.0722 174.339 70.2722 174.136 69.3335 174.136C68.3522 174.136 67.4882 174.349 66.7415 174.776C65.9948 175.203 65.4188 175.8 65.0135 176.568C64.6082 177.336 64.4055 178.243 64.4055 179.288C64.4055 180.355 64.6188 181.293 65.0455 182.104C65.4722 182.893 66.0802 183.512 66.8695 183.96C67.6588 184.387 68.5655 184.6 69.5895 184.6C70.4428 184.6 71.2215 184.451 71.9255 184.152C72.6508 183.853 73.2695 183.405 73.7815 182.808L75.6375 184.696C74.9122 185.549 74.0162 186.2 72.9495 186.648C71.9042 187.096 70.7842 187.32 69.5895 187.32ZM84.5378 187.32C83.6844 187.32 82.8738 187.213 82.1058 187C81.3591 186.765 80.6658 186.445 80.0258 186.04C79.3858 185.613 78.8311 185.112 78.3618 184.536L80.2178 182.68C80.7724 183.363 81.4124 183.875 82.1378 184.216C82.8631 184.536 83.6738 184.696 84.5698 184.696C85.4658 184.696 86.1591 184.547 86.6498 184.248C87.1404 183.928 87.3858 183.491 87.3858 182.936C87.3858 182.381 87.1831 181.955 86.7778 181.656C86.3938 181.336 85.8924 181.08 85.2738 180.888C84.6551 180.675 83.9938 180.472 83.2898 180.28C82.6071 180.067 81.9564 179.8 81.3378 179.48C80.7191 179.16 80.2071 178.723 79.8018 178.168C79.4178 177.613 79.2258 176.877 79.2258 175.96C79.2258 175.043 79.4498 174.253 79.8978 173.592C80.3458 172.909 80.9644 172.387 81.7538 172.024C82.5644 171.661 83.5351 171.48 84.6658 171.48C85.8604 171.48 86.9164 171.693 87.8338 172.12C88.7724 172.525 89.5404 173.144 90.1378 173.976L88.2818 175.832C87.8551 175.277 87.3218 174.851 86.6818 174.552C86.0631 174.253 85.3591 174.104 84.5698 174.104C83.7378 174.104 83.0978 174.253 82.6498 174.552C82.2231 174.829 82.0098 175.224 82.0098 175.736C82.0098 176.248 82.2018 176.643 82.5858 176.92C82.9698 177.197 83.4711 177.432 84.0898 177.624C84.7298 177.816 85.3911 178.019 86.0738 178.232C86.7564 178.424 87.4071 178.691 88.0258 179.032C88.6444 179.373 89.1458 179.832 89.5298 180.408C89.9351 180.984 90.1378 181.741 90.1378 182.68C90.1378 184.109 89.6258 185.24 88.6018 186.072C87.5991 186.904 86.2444 187.32 84.5378 187.32ZM93.394 187V171.8H96.274V187H93.394ZM94.834 168.76C94.3007 168.76 93.8633 168.589 93.522 168.248C93.1807 167.885 93.01 167.437 93.01 166.904C93.01 166.392 93.1807 165.965 93.522 165.624C93.8633 165.261 94.3007 165.08 94.834 165.08C95.3673 165.08 95.8047 165.261 96.146 165.624C96.4873 165.965 96.658 166.392 96.658 166.904C96.658 167.437 96.4873 167.885 96.146 168.248C95.8047 168.589 95.3673 168.76 94.834 168.76ZM106.822 193.688C105.265 193.688 103.878 193.4 102.662 192.824C101.468 192.248 100.508 191.437 99.7823 190.392L101.638 188.504C102.257 189.293 102.993 189.891 103.846 190.296C104.7 190.723 105.713 190.936 106.886 190.936C108.444 190.936 109.67 190.52 110.566 189.688C111.484 188.877 111.942 187.779 111.942 186.392V182.616L112.454 179.192L111.942 175.8V171.8H114.822V186.392C114.822 187.843 114.481 189.112 113.798 190.2C113.137 191.288 112.198 192.141 110.982 192.76C109.788 193.379 108.401 193.688 106.822 193.688ZM106.822 186.744C105.436 186.744 104.188 186.413 103.078 185.752C101.99 185.091 101.126 184.184 100.486 183.032C99.8463 181.859 99.5263 180.547 99.5263 179.096C99.5263 177.645 99.8463 176.355 100.486 175.224C101.126 174.072 101.99 173.165 103.078 172.504C104.188 171.821 105.436 171.48 106.822 171.48C108.017 171.48 109.073 171.715 109.99 172.184C110.908 172.653 111.633 173.315 112.166 174.168C112.721 175 113.02 175.981 113.062 177.112V181.144C112.998 182.253 112.689 183.235 112.134 184.088C111.601 184.92 110.876 185.571 109.958 186.04C109.041 186.509 107.996 186.744 106.822 186.744ZM107.398 184.024C108.337 184.024 109.158 183.821 109.862 183.416C110.588 183.011 111.142 182.445 111.526 181.72C111.91 180.973 112.102 180.109 112.102 179.128C112.102 178.147 111.9 177.293 111.494 176.568C111.11 175.821 110.566 175.245 109.862 174.84C109.158 174.413 108.326 174.2 107.366 174.2C106.406 174.2 105.564 174.413 104.838 174.84C104.113 175.245 103.537 175.821 103.11 176.568C102.705 177.293 102.502 178.136 102.502 179.096C102.502 180.056 102.705 180.909 103.11 181.656C103.537 182.403 104.113 182.989 104.838 183.416C105.585 183.821 106.438 184.024 107.398 184.024ZM129.802 187V178.136C129.802 176.984 129.439 176.035 128.714 175.288C127.988 174.541 127.05 174.168 125.898 174.168C125.13 174.168 124.447 174.339 123.85 174.68C123.252 175.021 122.783 175.491 122.442 176.088C122.1 176.685 121.93 177.368 121.93 178.136L120.746 177.464C120.746 176.312 121.002 175.288 121.514 174.392C122.026 173.496 122.74 172.792 123.658 172.28C124.575 171.747 125.61 171.48 126.762 171.48C127.914 171.48 128.927 171.768 129.802 172.344C130.698 172.92 131.402 173.677 131.914 174.616C132.426 175.533 132.682 176.515 132.682 177.56V187H129.802ZM119.049 187V171.8H121.93V187H119.049ZM143.621 187.32C142.106 187.32 140.741 186.979 139.525 186.296C138.309 185.592 137.349 184.643 136.645 183.448C135.941 182.253 135.589 180.899 135.589 179.384C135.589 177.891 135.93 176.547 136.613 175.352C137.317 174.157 138.255 173.219 139.429 172.536C140.623 171.832 141.957 171.48 143.429 171.48C144.837 171.48 146.074 171.8 147.141 172.44C148.229 173.08 149.071 173.965 149.669 175.096C150.287 176.227 150.597 177.507 150.597 178.936C150.597 179.149 150.586 179.384 150.565 179.64C150.543 179.875 150.501 180.152 150.437 180.472H137.605V178.072H148.901L147.845 179C147.845 177.976 147.663 177.112 147.301 176.408C146.938 175.683 146.426 175.128 145.765 174.744C145.103 174.339 144.303 174.136 143.365 174.136C142.383 174.136 141.519 174.349 140.773 174.776C140.026 175.203 139.45 175.8 139.045 176.568C138.639 177.336 138.437 178.243 138.437 179.288C138.437 180.355 138.65 181.293 139.077 182.104C139.503 182.893 140.111 183.512 140.901 183.96C141.69 184.387 142.597 184.6 143.621 184.6C144.474 184.6 145.253 184.451 145.957 184.152C146.682 183.853 147.301 183.405 147.813 182.808L149.669 184.696C148.943 185.549 148.047 186.2 146.981 186.648C145.935 187.096 144.815 187.32 143.621 187.32ZM153.737 187V171.8H156.617V187H153.737ZM156.617 178.328L155.529 177.848C155.529 175.907 155.977 174.36 156.873 173.208C157.769 172.056 159.06 171.48 160.745 171.48C161.513 171.48 162.206 171.619 162.825 171.896C163.444 172.152 164.02 172.589 164.553 173.208L162.665 175.16C162.345 174.819 161.993 174.573 161.609 174.424C161.225 174.275 160.777 174.2 160.265 174.2C159.198 174.2 158.324 174.541 157.641 175.224C156.958 175.907 156.617 176.941 156.617 178.328Z" fill="white"/>
</svg>
