<svg width="364" height="110" viewBox="0 0 364 110" fill="none" xmlns="http://www.w3.org/2000/svg">
<path d="M1.984 28.12C1.152 27.608 1.024 26.2 1.984 26.2H21.568C29.44 26.2 38.784 28.568 38.784 39.512C38.784 50.456 27.648 54.616 20.48 54.616H15.488C15.552 61.4 16.064 67.672 18.24 69.08C19.2 69.656 19.2 71 18.24 71H1.984C1.024 71 1.152 69.592 1.984 69.08C4.672 67.48 4.544 57.24 4.544 48.6C4.544 39.96 4.928 29.848 1.984 28.12ZM21.568 28.12C14.272 28.12 15.424 39.96 15.424 48.6C15.424 49.944 15.424 51.288 15.424 52.696C24.32 52.44 27.904 48.472 27.904 39.192C27.904 32.472 25.6 28.12 21.568 28.12ZM41.4215 28.12C40.5895 27.608 40.4615 26.2 41.4215 26.2H61.0055C68.8775 26.2 78.2215 29.336 78.2215 38.488C78.2215 45.848 68.7495 50.84 64.0775 50.84H62.0295C69.5815 50.84 72.9095 53.272 76.4935 59.928C79.5655 65.688 80.9095 68.184 83.4055 68.888C84.7495 69.272 84.5575 71 83.2775 71H68.5575C67.5975 71 67.5975 69.656 68.4935 69.08C69.9015 68.184 67.8535 63.384 66.9575 61.464C64.3975 56.152 62.9255 51.416 56.9095 51.416H54.8615C54.9255 59.288 55.1815 67.48 57.6775 69.08C58.6375 69.656 58.6375 71 57.6775 71H41.4215C40.4615 71 40.5895 69.592 41.4215 69.08C44.1095 67.48 43.9815 57.24 43.9815 48.6C43.9815 39.96 44.3655 29.848 41.4215 28.12ZM61.0055 28.12C53.7095 28.12 54.8615 39.96 54.8615 48.6C54.8615 48.92 54.8615 49.176 54.8615 49.496C63.7575 49.304 67.3415 46.104 67.3415 38.872C67.3415 32.472 65.0375 28.12 61.0055 28.12ZM107.063 72.28C94.2625 72.28 84.9825 62.68 84.9825 48.6C84.9825 34.52 94.2625 24.92 107.063 24.92C119.863 24.92 129.143 34.52 129.143 48.6C129.143 62.68 119.863 72.28 107.063 72.28ZM98.1025 28.504C89.7825 32.344 92.9825 44.76 96.8225 53.208C100.151 60.44 105.783 69.336 112.503 69.336C113.655 69.336 114.807 69.08 116.023 68.504C124.407 64.664 121.079 52.376 117.303 43.992C114.039 36.76 108.343 27.736 101.559 27.736C100.407 27.736 99.2545 27.992 98.1025 28.504ZM131.547 71C130.587 71 130.715 69.592 131.547 69.08C134.107 67.544 134.107 58.776 134.107 48.728C134.107 38.68 134.427 29.848 131.547 28.12C130.715 27.608 130.587 26.2 131.547 26.2H151.131C164.315 26.2 172.635 35.352 172.635 48.408C172.635 61.464 164.443 71 151.131 71H131.547ZM151.131 28.12C144.091 28.12 144.987 38.552 144.987 48.6C144.987 58.648 144.475 69.08 151.131 69.08C157.659 69.08 161.755 61.464 161.755 48.664C161.755 35.864 157.659 28.12 151.131 28.12ZM175.602 28.12C174.706 27.608 174.642 26.2 175.602 26.2H191.858C192.818 26.2 192.69 27.608 191.858 28.12C188.85 29.912 189.17 39.96 189.17 48.6C189.17 60.888 188.722 70.36 198.066 70.36C205.234 70.36 210.738 66.968 210.738 48.6C210.738 39.96 211.058 29.912 208.05 28.12C207.218 27.608 207.09 26.2 208.05 26.2H216.626C217.586 26.2 217.522 27.608 216.626 28.12C214.13 29.656 213.938 39.96 213.938 52.568C213.938 64.792 207.858 72.28 198.002 72.28C184.498 72.28 178.29 64.792 178.29 52.568C178.29 39.96 178.098 29.656 175.602 28.12ZM218.733 48.6C218.733 34.52 228.013 24.92 240.813 24.92C248.045 24.92 254.381 27.288 257.325 31.96C260.589 37.08 256.493 41.24 252.653 41.24C251.053 41.24 249.581 40.536 248.557 39C245.229 33.816 242.669 27.352 235.309 27.352C229.741 27.352 226.541 31.96 226.541 38.744C226.541 47.384 234.477 66.776 245.677 66.776C250.989 66.776 255.789 63.192 258.029 59.864C258.413 59.288 258.925 59.032 259.373 59.032C260.269 59.032 261.037 59.992 260.333 61.4C258.349 65.496 250.925 72.28 240.813 72.28C228.013 72.28 218.733 62.68 218.733 48.6ZM262.89 37.208C262.89 29.208 263.274 26.2 267.626 26.2H298.346C302.698 26.2 303.082 29.208 303.082 37.208C303.082 39.256 301.93 41.496 299.562 41.496C297.002 41.496 295.914 39.256 294.89 36.44C293.61 33.048 293.034 28.12 289.194 28.12C287.914 28.12 287.786 42.264 287.786 49.752C287.786 57.24 287.914 67.16 291.114 69.08C291.946 69.592 292.074 71 291.114 71H274.858C273.898 71 274.026 69.592 274.858 69.08C278.058 67.16 278.186 57.24 278.186 49.752C278.186 42.264 278.058 28.12 276.778 28.12C272.938 28.12 272.362 33.048 271.082 36.44C270.058 39.256 268.97 41.496 266.41 41.496C264.042 41.496 262.89 39.256 262.89 37.208ZM305.478 63.896C303.814 59.672 306.95 55.96 310.406 55.96C312.39 55.96 314.502 57.176 315.91 60.248C318.086 65.048 319.558 70.36 325.446 70.36C328.902 70.36 332.23 67.16 332.23 64.344C332.23 52.44 306.31 50.776 306.31 35.864C306.31 30.232 312.134 24.92 321.99 24.92C332.038 24.92 337.734 27.288 340.678 31.96C343.878 37.08 339.654 41.304 335.814 41.304C334.278 41.304 332.742 40.6 331.846 39C328.262 32.6 325.254 26.84 321.478 26.84C318.406 26.84 317.19 29.528 317.19 31.704C317.19 44.376 343.174 47.512 343.174 60.248C343.174 67.928 334.214 72.28 324.422 72.28C317.574 72.28 307.846 69.912 305.478 63.896Z" fill="white"/>
</svg>
